<svg xmlns="http://www.w3.org/2000/svg" viewBox="0 0 360 342.74">
  <defs>
    <style>
      .a{fill:#fff;}.b{fill:#033562;}.c{fill:#fadf12;}.d{fill:#fea243;}.e{fill:#fe5294;}.f,.g,.h{fill:none;}.g,.h{stroke:#033562;stroke-miterlimit:10;}.g{stroke-width:3px;}.h{stroke-linecap:round;stroke-width:4px;}
    </style>
  </defs>
  <title>
    Artboard 3 copy 5
  </title>
  <path class="a" d="M118.04 160.17l-30.96 5.05-11.19 18.53-1.19 13.13 5.95 2.05 19.13-13.51 16.85-11.22 1.41-14.03M184.51 272.92c-6.28 12.18-9.76 23.84-16.08 29.16-5.62 4.74-25.12 15.93-18.59-9.45 10.52-21.31 14.34-27.93 14.34-27.93z"/>
  <path class="a" d="M250.19 230.56c-1-10.8-5.07-23.68-31.88-34s-27.94-17.54-38.38-36c-14.83-26.28-7.55-67.4-7.16-71.95a106.69 106.69 0 0 0-.91-24.85c-1.69-9.76-5.59-7.81-9.11-5.85s-7.55 12.36-10.67 19.26-14.05 9.5-20.82 10a43.36 43.36 0 0 1-17.56-2.73c-2.86-1.3-6.46-.65-8.93.52s-14.09 5.85-18.26 7.42-9.63 1.69-15.09 2.08-21.21 13.79-14.05 32 28 11.71 31.23 9.53 3-2.11 5.33-1.46c12.77 8.4 22.86 9.59 30.48 7.79 10.31-2.45 16.07-10.39 17.79-13.38l-2.08 39.29s-2.5 4-10.93 4.55c-4.84.3-9 .42-12.56 1.4a32 32 0 0 0-16.85 11.22c-4.94 6.12-8.2 18.22-8.85 28.49s10.28 6.64 12.88 3.64 10.93-12.75 14.83-13.79c2.34 27.71 26.54 46.45 34.87 54.12s34.09 14.83 47.62 15.61c0 0-11.32 17.3-14.83 32.4s10.56 12.05 15.74 8.2c8.05-6 19.26-19.13 32.53-39s16.51-34.88 15.62-44.51z"/>
  <path class="b" d="M143.22 207.71h-.4a67.83 67.83 0 0 1-10.2-1.23c-4.94-.84-10.05-1.72-13.38-.72a2.08 2.08 0 0 1-1.19-4c4.26-1.27 9.86-.31 15.27.61a65.05 65.05 0 0 0 9.55 1.17c4.17 0 4.38-.35 5.59-2.56a25.9 25.9 0 0 1 2.84-4.31 2.08 2.08 0 0 1 3.22 2.64 22 22 0 0 0-2.41 3.68c-1.79 3.26-3.2 4.72-8.89 4.72zM189.4 272.36c-14.27 30.2-21.5 34.09-25 36l-.57.31a16.5 16.5 0 0 1-8.21 2.51 9.35 9.35 0 0 1-6.84-2.76c-3.73-3.8-5.15-12.11 2.07-24.06 3.66-6.05 11.37-21 11.45-21.1a2.08 2.08 0 1 1 3.7 1.91c-.32.62-7.85 15.17-11.59 21.35-5.61 9.28-5.38 16.22-2.66 19 2.11 2.14 5.85 2 10-.42.21-.13.44-.25.7-.39 2.84-1.53 9.5-5.11 23.19-34.07a2.08 2.08 0 1 1 3.76 1.78z"/>
  <path class="b" d="M201.14 275.58a2 2 0 0 1-.44 0c-9.82-2.11-16.14-9.63-18.27-21.75a68.47 68.47 0 0 1 .57-23.73 2.08 2.08 0 0 1 4.07.85 64.22 64.22 0 0 0-.51 22.12c1.84 10.46 6.9 16.65 15 18.4a2.08 2.08 0 0 1-.44 4.12zM172.93 73.38c-.88-9.79 31.85 8.82 37.41 53.4 2.78 21.86 6.77 40.25 13.53 48.57s14.49 13.36 17.26 14.23-15.7 8.85-22.81 7c0 0-24.47-6.23-36.68-33-12.06-26.43-11.63-40.9-10.9-52.32s2.74-31.74 2.19-37.88z"/>
  <path class="b" d="M220.64 198.92a11.68 11.68 0 0 1-2.85-.3c-1-.26-25.57-6.79-38.06-34.14C167 136.62 168 121.3 168.65 111.16c.21-3.26.52-7.25.85-11.42.81-10.29 1.73-22 1.35-26.18-.24-2.64 1.22-4.51 3.71-4.78 8.92-1 33.19 20.43 37.83 57.74 3.18 25.06 7.46 40.6 13.08 47.52 6.43 7.92 13.88 12.81 16.27 13.55a2.36 2.36 0 0 1 1.65 2.91c-.89 3.18-14.78 8.42-22.75 8.42zM175 72.92a1.86 1.86 0 0 0 0 .27c.41 4.57-.48 15.91-1.34 26.88-.33 4.16-.64 8.12-.85 11.36-.83 12.87-.63 26.47 10.72 51.32 11.63 25.47 35.07 31.77 35.3 31.83 4.43 1.13 14.2-2.25 18.66-4.44a59.82 59.82 0 0 1-15.24-13.48C216 169 211.6 153.26 208.27 127c-3.83-30.73-20.49-47.81-28.77-52.55-2.57-1.45-4.03-1.59-4.5-1.53zM133.78 86.91c-6 .21-16.8-1.34-16.8-1.34-3.58-.84-9.29-1.57-9.29-1.57-6-.45-16.54-7.94-13.63-14 1.36-2.84 11.84-.78 14.7-1.17S120.47 61 130 56.32s21.6 6.54 26.41 11.23c-.03-.01-3.87 18.7-22.63 19.36z"/>
  <path class="b" d="M132.56 89a139.73 139.73 0 0 1-15.88-1.38c-3.61-.84-9.2-1.56-9.26-1.57-4.49-.34-11.68-4.28-14.63-9.39a7.86 7.86 0 0 1-.61-7.57c1.55-3.23 7-2.85 12.37-2.47a28.24 28.24 0 0 0 3.93.14c1-.13 4.36-2.4 7.11-4.22A127 127 0 0 1 129 54.45c11.18-5.55 24.43 7.36 28.79 11.6l.82.79-.19 1.16c0 .2-4.4 20.32-24.57 21zm-15.11-5.47c.05 0 10.52 1.47 16.26 1.29 14.43-.51 19.23-12.88 20.35-16.64-9.87-9.38-17.66-12.74-23.16-10a124.5 124.5 0 0 0-13 7.85c-4.57 3-7 4.63-8.85 4.88a28 28 0 0 1-4.79-.11c-2.23-.16-7.44-.53-8.43.27-.08.23-.65 1.42.57 3.53 2.17 3.75 8 7.07 11.45 7.33.35 0 6 .77 9.6 1.62z"/>
  <path class="b" d="M108.84 69.14l-1 1.55C103 68.2 83.55 38.92 78.09 25.93c-1.81-4.31-3.15-8.58-.66-10.54 2.83-2.23 7.63 1 14.09 5.71 8 5.87 28 27 36.28 35.76l1.76 1.88zm-28.6-50.22a19.75 19.75 0 0 0 1.68 5.4c5.61 13.35 22.27 37.43 27 42L123 57.84c-9-9.53-26.76-28.09-33.95-33.38-1.74-1.28-6.68-4.92-8.81-5.54z"/>
  <path class="c" d="M123 57.84S88.12 18.92 80.24 18.92c-6.44 0 25.74 46.88 28.66 47.4 7.63-4.39 14.1-8.48 14.1-8.48z"/>
  <path class="b" d="M108.4 71.91l-1.18-1.46c-.08-.1-7.79-9.65-15.67-21.3l-1.07-1.58L92 46.38c9.56-7.82 21.84-2.49 27 1.42l.24.21 10.09 10.38zM96.14 48.49c5.58 8.13 10.88 15 13.15 17.87l13.46-8.72-6.43-6.64c-1.32-.91-11.46-7.91-20.18-2.51z"/>
  <path class="b" d="M96.35 57.22a200.21 200.21 0 0 0-13.12-22.64L82.16 33l1.47-1.2c12.24-10 29.36 9.47 30.08 10.3l-3.14 2.73C110.43 44.67 97 29.41 87.85 34a205.58 205.58 0 0 1 12.25 21.42z"/>
  <path class="d" d="M184.89 82.37c4.54 2.7 7.79 7.23 10.13 11.84a70.17 70.17 0 0 1 5 14.52c1.16 4.92 2 9.84 2.77 14.72s1.31 9.78 2.15 14.29a129.54 129.54 0 0 0 8.6 27 94.81 94.81 0 0 0 6.69 12.52 46.22 46.22 0 0 0 9.2 10.74 1 1 0 0 1-1.09 1.77 37.61 37.61 0 0 1-12.21-9.34 71.07 71.07 0 0 1-8.9-12.43 98.43 98.43 0 0 1-10.86-28.5c-1.09-5.14-1.57-10-2.14-14.88s-1-9.69-1.69-14.42c-.31-2.37-.67-4.72-1.14-7a65.59 65.59 0 0 0-1.6-6.84A32.78 32.78 0 0 0 183.56 84a1.05 1.05 0 0 1 1.34-1.59z"/>
  <path class="e" d="M178.18 91c4.18 7.48 5.73 16.34 6.67 24.54a204.61 204.61 0 0 0 3.73 24q1.43 5.85 3.33 11.62c1.31 3.82 2.71 7.62 4.33 11.33a108.4 108.4 0 0 0 5.38 10.86 43 43 0 0 0 7.08 9.61 1 1 0 0 1-1.25 1.66 35.27 35.27 0 0 1-9.47-8.86 77.36 77.36 0 0 1-7-10.74 97.54 97.54 0 0 1-5.4-11.59 95.18 95.18 0 0 1-3.95-12.2 112.75 112.75 0 0 1-3.25-25.24c-.11-4.16-.18-8.23-.49-12.24a102.47 102.47 0 0 0-1.7-12.07 1.05 1.05 0 0 1 2-.71zM150.08 69.34c-4.41-2-8.35-5.33-12-5.57a9.59 9.59 0 0 0-5.31 1.37c-2 1.09-4.06 2.15-6.05 3.32-4 2.27-7.82 4.91-12.63 6.9a14.52 14.52 0 0 1-8.11.88 41.26 41.26 0 0 1-7.07-2 1.05 1.05 0 0 1 .38-2c2.41 0 4.8.32 7 .24a11.76 11.76 0 0 0 5.71-1.59c1.84-1.1 3.76-2.39 5.71-3.73s4-2.62 6.17-3.76a68.64 68.64 0 0 1 6.56-3.24 18.82 18.82 0 0 1 4-1.28 13 13 0 0 1 4.45.09 16.47 16.47 0 0 1 7.09 3.8c1.9 1.6 3.54 3.25 5.27 4.84a1.05 1.05 0 0 1-1.16 1.73z"/>
  <path class="d" d="M146 78.23c-1.29-.53-2.52-1.18-3.68-1.73a8.19 8.19 0 0 0-2.93-1 6.89 6.89 0 0 0-2.66.55c-1.06.42-2.23.92-3.38 1.48l.5-.3a40.3 40.3 0 0 1-4.43 2.77 35.51 35.51 0 0 1-4.73 2.14 22.55 22.55 0 0 1-5.22 1.25 11.65 11.65 0 0 1-5.65-.66 1.59 1.59 0 0 1 .64-3.06h.15c2.62 0 5.36-1.06 8-2.37 1.33-.68 2.66-1.41 4-2.21s2.62-1.67 3.77-2.48l.32-.22.19-.08a31.67 31.67 0 0 1 4.11-1.58 10.32 10.32 0 0 1 5.3-.29 10.9 10.9 0 0 1 4.36 2.37c1.1.92 2.08 1.82 3 2.78a1.61 1.61 0 0 1-1.66 2.64z"/>
  <rect class="b" x="266.99" y="93.47" width="6.16" height="17.82" rx="1.48" ry="1.48"/>
  <rect class="b" x="266.99" y="93.47" width="6.16" height="17.82" rx="1.48" ry="1.48" transform="rotate(-90 270.065 102.385)"/>
  <rect class="b" x="246.55" y="144.06" width="5.39" height="15.6" rx="1.29" ry="1.29" transform="rotate(45 249.238 151.858)"/>
  <rect class="b" x="246.55" y="144.06" width="5.39" height="15.6" rx="1.29" ry="1.29" transform="rotate(-45 249.243 151.86)"/>
  <rect class="b" x="112.51" y="252.04" width="5.39" height="15.6" rx="1.29" ry="1.29" transform="rotate(45 115.21 259.842)"/>
  <rect class="b" x="112.51" y="252.04" width="5.39" height="15.6" rx="1.29" ry="1.29" transform="rotate(-45 115.21 259.84)"/>
  <rect class="b" x="38" y="155.92" width="6.16" height="17.82" rx="1.48" ry="1.48"/>
  <rect class="b" x="38" y="155.92" width="6.16" height="17.82" rx="1.48" ry="1.48" transform="rotate(-90 41.075 164.835)"/>
  <circle class="b" cx="63.1" cy="233.72" r="5.28"/>
  <circle class="b" cx="253.1" cy="293.72" r="5.28"/>
  <circle class="b" cx="208.83" cy="46.36" r="5.28"/>
  <circle class="b" cx="312.91" cy="192.08" r="5.28"/>
  <path class="f" d="M114.26 172.77a38.74 38.74 0 0 1 1.48-10.49 47.41 47.41 0 0 0-4.73.58c-2.13.45-5.28.77-8.33 1.09-2.89.3-5.88.61-7.66 1-6.68 1.44-10.44 3.72-16.06 18.36-4.63 12-2.41 13.77-2.32 13.84 1.25.87 6-1.1 10.8-5.31.87-.83 1.62-1.68 2.36-2.5 2.11-2.37 4.15-4.59 8.84-5.76a33.92 33.92 0 0 1 15.62-10.81z"/>
  <path class="f" d="M217.57 198.55c-24.38-9.35-28.3-16.56-36.12-30.93-1-1.87-2.11-3.87-3.33-6-9.13-16.18-11.71-40.06-7.68-71 .13-1 .23-1.75.27-2.17a104.56 104.56 0 0 0-.89-24.32c-.79-4.59-2-5.47-2.29-5.63-.81-.4-2.58.59-3.75 1.24-2.32 1.29-5.83 9.32-8.16 14.63-.62 1.27-1.12 2.51-1.62 3.63-4.24 9.37-19.53 11-22.55 11.24-6.79.52-15.16-1.35-18.59-2.91-2.3-1-5.3-.38-7.18.51-2.57 1.22-14.37 6-18.42 7.49-3.84 1.44-8.43 1.74-13.29 2l-2.38.16c-1.73.12-6.71 2.9-10.41 8.77a21.91 21.91 0 0 0-1.85 20.4c2.05 5.34 5.57 8.79 10.42 10.34 7.65 2.38 16.19-.69 17.68-1.69l.41-.27c2.94-2 3.57-2.33 6.35-1.55l.88.35c10.64 7 20.34 9.52 28.85 7.5 10.29-2.45 15.53-10.75 16.47-12.39l4.34-7.55-.55 10.6 5.65-5.65-5.65 5.65-2 37.88-.28.45c-.32.51-3.33 5-12.57 5.53l-2 .12a51.26 51.26 0 0 0-10.14 1.21 30 30 0 0 0-15.78 10.52C97.15 192 93.7 203.22 93 214c-.15 2.37.39 3.82 1.62 4.32 2.31 1 6.47-.86 7.61-2.18l.37-.43c5.51-6.35 11.66-13 15.49-14l2.4-.64.21 2.48c2 24.22 21.85 41.78 31.37 50.22 1.07 1 2 1.8 2.84 2.55 7.59 7 32.23 14.25 46.33 15.07l3.59.21-2 3c-.11.17-11.16 17.18-14.55 31.73-.67 2.87-1 6.6 1.2 8 2.8 1.83 8.54 0 11.27-2 8.13-6 19.51-19.73 32-38.52 14.72-22.08 15.89-36.51 15.27-43.15-.92-10.94-5.33-22.48-30.45-32.11z"/>
  <path class="a" d="M144.63 169.76c-1 .12-2.14.22-3.3.29l-1.69.1-4.39.19-4.57.19c4.09-.64 6-2.56 7.15-2.84s4 .23 4.27 1.3zM144.25 129.6a9.4 9.4 0 0 1-.75 1.55c-1.29 2-6.42 7-6.42 7A29.72 29.72 0 0 1 126 144c-3.92 10.37-7.47 22.33-7.67 27.35q-1.31.14-2.58.3c.11-5.94 5-19 11.44-32.41q.62-.24 1.2-.51c.46-.21.91-.44 1.34-.66s.8-.44 1.18-.67a30.37 30.37 0 0 0 9.49-9.53l1.16-2 .83-.27c.72-.23 1.43-.48 2.12-.73h.14c.83.67.28 3.01-.4 4.73z"/>
  <path class="f" d="M114.26 172.77a38.74 38.74 0 0 1 1.48-10.49 47.41 47.41 0 0 0-4.73.58c-2.13.45-5.28.77-8.33 1.09-2.89.3-5.88.61-7.66 1-6.68 1.44-10.44 3.72-16.06 18.36-4.63 12-2.41 13.77-2.32 13.84 1.25.87 6-1.1 10.8-5.31.87-.83 1.62-1.68 2.36-2.5 2.11-2.37 4.15-4.59 8.84-5.76a33.92 33.92 0 0 1 15.62-10.81zM142.17 168.88l2.01-37.88.07-1.41.25-4.68.01-.13M130.9 137.45a28 28 0 0 0 9.49-9.53M141.33 170.06a5.54 5.54 0 0 0 .56-.72l.21-.34M146.9 170.46l-2.27-.69"/>
  <path class="b" d="M252.26 230.38c-1.09-11.78-5.88-25.24-33.2-35.71-22.95-8.8-26.4-15.14-34-29-1-1.89-2.13-3.91-3.35-6.08-8.68-15.38-11.1-38.39-7.19-68.4.15-1.1.25-1.9.29-2.35a109.07 109.07 0 0 0-.93-25.39c-.84-4.81-2.3-7.57-4.6-8.67-2.76-1.32-5.66.29-7.57 1.36-3.3 1.83-6.21 8-10 16.6-.55 1.26-1.09 2.49-1.6 3.61-2.37 5.25-11.29 8.2-19.08 8.8a41.38 41.38 0 0 1-16.54-2.55c-3.6-1.63-7.89-.79-10.69.54-2.29 1.08-13.82 5.74-18.1 7.34-3.26 1.23-7.55 1.5-12.09 1.8l-2.42.16c-3.54.25-9.61 4.32-13.63 10.7a26.23 26.23 0 0 0-2.21 24.14c2.56 6.52 7 10.79 13.08 12.7 8.73 2.73 18.6-.43 21.25-2.2l.41-.28a19 19 0 0 1 1.93-1.23 7.16 7.16 0 0 1 1 .24c10.07 6.56 19.51 9.42 28.13 8.52-1.27 3.47-2.92 8.23-4.31 13a65.71 65.71 0 0 0-6.72.77c-1.92.4-5 .72-7.91 1-3.14.33-6.11.64-8.11 1.07-9.33 2-13.6 6.7-19.07 20.93-4 10.39-4.25 16.35-.81 18.75a5.41 5.41 0 0 0 3.15.92c5 0 11.34-5.26 12.84-6.57 1.05-1 1.9-2 2.66-2.8.5-.56 1-1.07 1.41-1.53a70.57 70.57 0 0 0-5.46 23.2c-.36 5.7 2.47 7.74 4.19 8.44 4.2 1.72 10.21-.84 12.34-3.3l.38-.43c5.65-6.51 9.08-9.81 11.17-11.41 3.5 24.22 22.87 41.41 32.39 49.85 1 .93 2 1.76 2.78 2.49 8.24 7.6 31.34 14.25 45.47 15.86-3.4 5.63-10.57 18.42-13.3 30.15-1.76 7.54.65 10.94 3 12.46a9.69 9.69 0 0 0 5.38 1.45 19.43 19.43 0 0 0 10.66-3.57c8.63-6.42 20.05-20.09 33-39.55 14.72-21.97 16.79-37.06 15.98-45.83zM89.8 189.32c-.73.83-1.49 1.67-2.36 2.5-4.81 4.21-9.54 6.19-10.8 5.31-.09-.07-2.31-1.79 2.32-13.84 5.62-14.63 9.38-16.91 16.06-18.35 1.77-.38 4.77-.69 7.66-1 3.05-.32 6.2-.65 8.33-1.09a47 47 0 0 1 4.73-.58 38.31 38.31 0 0 0-1.48 10.48 33.93 33.93 0 0 0-15.62 10.8c-4.69 1.19-6.73 3.45-8.84 5.77zm143 84.58c-12.52 18.79-23.9 32.47-32 38.52-2.73 2-8.48 3.81-11.28 2-2.2-1.44-1.86-5.17-1.2-8 3.39-14.55 14.44-31.56 14.55-31.73l2-3-3.59-.2c-14.1-.82-38.74-8.07-46.33-15.07-.81-.75-1.77-1.6-2.84-2.55-9.52-8.44-29.32-26-31.37-50.22l-.21-2.47-2.4.64c-3.83 1-10 7.65-15.49 14l-.37.43c-1.15 1.32-5.31 3.14-7.62 2.18-1.22-.5-1.77-2-1.61-4.32.68-10.83 4.13-22.06 8.38-27.32a30.07 30.07 0 0 1 15.79-10.52 51.61 51.61 0 0 1 10.12-1.27l2-.12c7.37-.46 10.78-3.4 12-4.82a5.54 5.54 0 0 0 .56-.72s.24-.24.21-.34c-.31-1.07-3.18-1.55-4.27-1.3s-3.06 2.2-7.15 2.84q-.75.12-1.62.18l-2 .12a73.37 73.37 0 0 0-8.78.86v-.3c.2-5 3.75-17 7.67-27.35a29.72 29.72 0 0 0 11.09-5.94s5.13-5 6.42-7a9.4 9.4 0 0 0 .75-1.55c.68-1.72 1.23-4.06.39-4.74a.56.56 0 0 0-.13-.08c-.55-.29-1.36.18-2.13.86a14.66 14.66 0 0 0-2 2.28 30.37 30.37 0 0 1-9.49 9.53c-.38.23-.78.45-1.18.67s-.88.45-1.34.66-.79.35-1.2.51a23.74 23.74 0 0 1-3.25 1c-8.51 2-18.22-.5-28.86-7.5l-.88-.35c-2.77-.78-3.41-.43-6.35 1.55l-.4.27c-1.5 1-10 4.07-17.69 1.69-4.85-1.52-8.37-5-10.44-10.25a21.87 21.87 0 0 1 1.85-20.4c3.7-5.87 8.68-8.64 10.41-8.77l2.38-.16c4.86-.31 9.45-.61 13.3-2 4-1.52 15.84-6.26 18.41-7.48 1.88-.89 4.89-1.55 7.18-.51 3.43 1.56 11.8 3.44 18.59 2.92 3-.24 18.31-1.87 22.56-11.24.51-1.14 1.05-2.38 1.62-3.66 2.32-5.32 5.84-13.35 8.16-14.64 1.17-.65 2.94-1.64 3.75-1.24.34.17 1.5 1 2.29 5.64a104.3 104.3 0 0 1 .89 24.31c0 .42-.13 1.16-.26 2.17-4 30.93-1.45 54.81 7.68 71 1.22 2.16 2.31 4.16 3.32 6 7.82 14.37 11.75 21.58 36.13 30.93 25.12 9.64 29.53 21.18 30.55 32.21.66 6.65-.51 21.08-15.23 43.16zm-88.29-149.13v.13h.14a.56.56 0 0 0-.14-.13z"/>
  <path class="a" d="M232.84 273.9c-12.52 18.79-23.9 32.47-32 38.52-2.73 2-8.48 3.81-11.28 2-2.2-1.44-1.86-5.17-1.2-8 3.39-14.55 14.44-31.56 14.55-31.73l2-3-3.59-.2c-14.1-.82-38.74-8.07-46.33-15.07-.81-.75-1.77-1.6-2.84-2.55-9.52-8.44-29.32-26-31.37-50.22l-.21-2.47-2.4.64c-3.83 1-10 7.65-15.49 14l-.37.43c-1.15 1.32-5.31 3.14-7.62 2.18-1.22-.5-1.77-2-1.61-4.32.68-10.83 4.13-22.06 8.38-27.32a30.07 30.07 0 0 1 15.79-10.52 51.61 51.61 0 0 1 10.08-1.27l2-.12c7.37-.46 10.78-3.4 12-4.82 1.16-.07 2.26-.17 3.3-.29l-2.53-.77c-.31-1.07-3.18-1.55-4.27-1.3s-3.06 2.2-7.15 2.84c-4.38.2-8.48.45-12.36.86.2-5 3.75-17 7.67-27.35a29.72 29.72 0 0 0 11.09-5.94s5.13-5 6.42-7a9.4 9.4 0 0 0 .75-1.55c.68-1.72 1.23-4.06.39-4.74a.56.56 0 0 0-.13-.08l.23-4.41-3.19 5.54-1.16 2a30.37 30.37 0 0 1-9.49 9.53c-.38.23-.78.45-1.18.67s-.88.45-1.34.66-.79.35-1.2.51a23.74 23.74 0 0 1-3.25 1c-8.51 2-18.22-.5-28.86-7.5l-.88-.35c-2.77-.78-3.41-.43-6.35 1.55l-.4.27c-1.5 1-10 4.07-17.69 1.69-4.85-1.52-8.37-5-10.44-10.25a21.87 21.87 0 0 1 1.85-20.4c3.7-5.87 8.68-8.64 10.41-8.77l2.38-.16c4.86-.31 9.45-.61 13.3-2 4-1.52 15.84-6.26 18.41-7.48 1.88-.89 4.89-1.55 7.18-.51 3.43 1.56 11.8 3.44 18.59 2.92 3-.24 18.31-1.87 22.56-11.24.51-1.14 1.05-2.38 1.62-3.66 2.32-5.32 5.84-13.35 8.16-14.64 1.17-.65 2.94-1.64 3.75-1.24.34.17 1.5 1 2.29 5.64a104.3 104.3 0 0 1 .89 24.31c0 .42-.13 1.16-.26 2.17-4 30.93-1.45 54.81 7.68 71 1.22 2.16 2.31 4.16 3.32 6 7.82 14.37 11.75 21.58 36.13 30.93 25.12 9.64 29.53 21.18 30.55 32.21.61 6.66-.56 21.09-15.28 43.17z"/>
  <path class="b" d="M339.58 286.45a5.69 5.69 0 0 1-3 3.2 1.94 1.94 0 0 1-.37.16 5.56 5.56 0 0 1-1.77.39 2.32 2.32 0 0 1-.35 0 5.72 5.72 0 0 1-2-.36l-24.9-9.29a6.36 6.36 0 0 1-.71-.32l-.15-.09a6.37 6.37 0 0 1-.67-.45 6 6 0 0 1-.58-.54L305 279a5.84 5.84 0 0 1-.48-.62l-.1-.15c-.12-.2-.24-.4-.34-.6l-.07-.14a6.12 6.12 0 0 1-.25-.66c0-.08 0-.16-.07-.24a6.49 6.49 0 0 1-.15-.73 1.86 1.86 0 0 0 0-.2 5.41 5.41 0 0 1 0-.75V274.67a5.78 5.78 0 0 1 .57-2.06l.1-.18.16-.31.19-.27.13-.18.24-.29.12-.14.26-.26.14-.14.25-.2.19-.15.21-.14.27-.17.15-.09.35-.18h.1l.42-.16h.08l.45-.13h.09l.45-.09h1.4a4.26 4.26 0 0 1-.26-1v-.07a3.91 3.91 0 0 1 0-.83 5.79 5.79 0 0 1 6.06-5.48h.9a14.17 14.17 0 0 1 .86-2.23c.11-.23.2-.44.28-.62.62-1.49 2.09-1.84 3.6-2.08a4.16 4.16 0 0 1 1.75-2.46c.14-.07.68-.42 1.15-.73a42.76 42.76 0 0 1 3.91-2.33 3.52 3.52 0 0 1 2.69-.41 2.54 2.54 0 0 1 1.39 1.62 10.61 10.61 0 0 1 .46 1.53 9.92 9.92 0 0 0 .6 1.92 16.34 16.34 0 0 0 1.76 2.37c.36.43.69.83.92 1.14a3.75 3.75 0 0 1 .61 2.58v.07a8.84 8.84 0 0 1-.16 1.17 5.77 5.77 0 0 1 1.54 1.21 5.71 5.71 0 0 1 1.49 4.15 3.92 3.92 0 0 1-1.42 3 5.75 5.75 0 0 1 .5.48 5.61 5.61 0 0 1 1.36 2.67 2.35 2.35 0 0 1 .05.27.28.28 0 0 1 0 .07 5 5 0 0 1 .07 1.15 5.77 5.77 0 0 1-1.64 3.73 5.76 5.76 0 0 1 1.25 6.03z"/>
  <path class="c" d="M336.46 262.47l-26.9 6v-.07a3.91 3.91 0 0 1 0-.83 5.79 5.79 0 0 1 6.06-5.48h.9a14.17 14.17 0 0 1 .86-2.23c.11-.23.2-.44.28-.62.62-1.49 2.09-1.84 3.6-2.08a4.16 4.16 0 0 1 1.75-2.46c.14-.07.68-.42 1.15-.73a42.76 42.76 0 0 1 3.91-2.33 3.52 3.52 0 0 1 2.69-.41 2.54 2.54 0 0 1 1.39 1.62 10.61 10.61 0 0 1 .46 1.53 9.92 9.92 0 0 0 .6 1.92 16.34 16.34 0 0 0 1.76 2.37c.36.43.69.83.92 1.14a3.75 3.75 0 0 1 .61 2.58z"/>
  <path class="d" d="M339.84 275.51l-28.94 6.41-3.66-1.36a6.36 6.36 0 0 1-.71-.32l-.15-.09a6.37 6.37 0 0 1-.67-.45 6 6 0 0 1-.58-.54L305 279a5.84 5.84 0 0 1-.48-.62l-.1-.15c-.12-.2-.24-.4-.34-.6l-.07-.14a6.12 6.12 0 0 1-.25-.66c0-.08 0-.16-.07-.24a6.49 6.49 0 0 1-.15-.73 1.86 1.86 0 0 0 0-.2 5.41 5.41 0 0 1 0-.75V274.67a5.78 5.78 0 0 1 .57-2.06l.1-.18.16-.31.19-.27.13-.18.24-.29.12-.14.26-.26.14-.14.25-.2.19-.15.21-.14.27-.17.15-.09.35-.18h.1l.42-.16h.08l.45-.13h.09l.45-.09h1.4a4.26 4.26 0 0 1-.26-1v-.07l26.91-6v.07a8.84 8.84 0 0 1-.16 1.17 5.77 5.77 0 0 1 1.54 1.21 5.71 5.71 0 0 1 1.49 4.15 3.92 3.92 0 0 1-1.42 3 5.75 5.75 0 0 1 .5.48 5.61 5.61 0 0 1 1.36 2.67 2.35 2.35 0 0 1 .05.27.28.28 0 0 1-.03.03z"/>
  <path class="e" d="M339.58 286.45a5.69 5.69 0 0 1-3 3.2 1.94 1.94 0 0 1-.37.16 5.56 5.56 0 0 1-1.77.39 2.32 2.32 0 0 1-.35 0 5.72 5.72 0 0 1-2-.36l-21.36-8 29-6.44a.28.28 0 0 1 0 .07 5 5 0 0 1 .07 1.15 5.77 5.77 0 0 1-1.64 3.73 5.76 5.76 0 0 1 1.42 6.1z"/>
  <path class="g" d="M338.92 286.59a5.82 5.82 0 0 1-2.89 3.22 1.89 1.89 0 0 1-.36.16 5.29 5.29 0 0 1-1.71.41 2.16 2.16 0 0 1-.33 0 5.25 5.25 0 0 1-1.87-.33l-23.81-8.88a5.82 5.82 0 0 1-.68-.31l-.14-.09a5.87 5.87 0 0 1-.64-.44 5.58 5.58 0 0 1-.55-.53l-.08-.08a5.54 5.54 0 0 1-.46-.61l-.09-.14c-.11-.19-.22-.39-.31-.6l-.07-.14a6 6 0 0 1-.23-.66c0-.08 0-.16-.06-.24a6.55 6.55 0 0 1-.13-.72 1.9 1.9 0 0 0 0-.2 5.56 5.56 0 0 1 0-.75V275.42a6 6 0 0 1 .57-2.06l.1-.18.16-.31.18-.28.12-.18.24-.29.12-.14.25-.26.14-.14.24-.2.19-.16.2-.14.27-.18.15-.09.34-.18h.1l.41-.17h.08l.44-.14h.09l.44-.1H310.7a4.26 4.26 0 0 1-.24-.94v-.07a4 4 0 0 1 0-.82 6 6 0 0 1 1.88-4 5.52 5.52 0 0 1 4-1.54h.86a14.82 14.82 0 0 1 .86-2.23c.11-.23.2-.44.28-.62.62-1.49 2-1.86 3.49-2.12a4.3 4.3 0 0 1 1.72-2.48c.14-.07.66-.43 1.12-.74a42.48 42.48 0 0 1 3.79-2.37 3.33 3.33 0 0 1 2.59-.45 2.41 2.41 0 0 1 1.31 1.59 10.58 10.58 0 0 1 .42 1.51 9.87 9.87 0 0 0 .55 1.9 15.57 15.57 0 0 0 1.66 2.33c.34.42.65.81.86 1.12a3.76 3.76 0 0 1 .55 2.56v.07a9.19 9.19 0 0 1-.17 1.17 5.35 5.35 0 0 1 1.47 1.18 5.65 5.65 0 0 1 1.38 4.11 4.08 4.08 0 0 1-1.4 3 5.37 5.37 0 0 1 .47.47 5.47 5.47 0 0 1 1.27 2.64 2.38 2.38 0 0 1 0 .27.28.28 0 0 1 0 .07 5.16 5.16 0 0 1 0 1.14 6 6 0 0 1-1.63 3.73 5.79 5.79 0 0 1 1.13 5.89z"/>
  <ellipse class="a" cx="330.91" cy="270.88" rx="4.83" ry="3.15" transform="rotate(-69.54 330.9 270.88)"/>
  <path class="b" d="M328.78 276.59c-2.32-.86-3.2-4-2-7.25s3.94-5 6.26-4.16 3.2 4 2 7.25-3.94 5.02-6.26 4.16zm3.38-9c-.84-.31-2.31.77-3 2.68s-.31 3.69.53 4 2.31-.77 3-2.68.31-3.74-.54-4.05z"/>
  <ellipse class="b" cx="330.8" cy="271.12" rx="2.21" ry="1.6" transform="rotate(-69.54 330.787 271.122)"/>
  <ellipse class="a" cx="321.34" cy="267.16" rx="4.83" ry="3.15" transform="rotate(-69.54 321.335 267.165)"/>
  <path class="b" d="M319.21 272.87c-2.32-.86-3.2-4-2-7.25s3.94-5 6.26-4.16 3.2 4 2 7.25-3.94 5.02-6.26 4.16zm3.38-9c-.84-.31-2.31.77-3 2.68s-.31 3.69.53 4 2.31-.77 3-2.68.31-3.74-.53-4.05z"/>
  <ellipse class="b" cx="321.23" cy="267.4" rx="2.21" ry="1.6" transform="rotate(-69.54 321.22 267.406)"/>
  <path class="a" d="M328.77 280.24l-12.17-4.54a1.77 1.77 0 0 0-1.44.92c-.53 1.41 2.2 3.72 6.09 5.18s7.47 1.49 8 .08a1.77 1.77 0 0 0-.48-1.64z"/>
  <path class="b" d="M320.81 283c-4-1.48-7.79-4.24-6.83-6.8a2.87 2.87 0 0 1 2.37-1.72l.35-.07 12.84 4.79.22.28a2.87 2.87 0 0 1 .67 2.85c-.96 2.55-5.66 2.12-9.62.67zm-4.44-5.89c.21.59 1.87 2.25 5.32 3.53s5.78 1.12 6.33.81l-.07-.15-11.42-4.3zM276.67 53.77a5.77 5.77 0 0 1-.05 4.42 2 2 0 0 1-.17.37 5.64 5.64 0 0 1-1.07 1.49 2.35 2.35 0 0 1-.25.25 5.8 5.8 0 0 1-1.72 1.06l-25.11 9.93h-.05a6.45 6.45 0 0 1-.75.24h-.17a6.46 6.46 0 0 1-.81.12 6.07 6.07 0 0 1-.8 0h-.12a5.93 5.93 0 0 1-.78-.14h-.17c-.22-.07-.45-.14-.66-.23l-.15-.06a6.21 6.21 0 0 1-.64-.33l-.22-.14a6.59 6.59 0 0 1-.6-.45l-.15-.14a5.49 5.49 0 0 1-.53-.55v-.05l-.11-.14a5.87 5.87 0 0 1-1-1.94v-.2l-.08-.34v-.33a2.13 2.13 0 0 0 0-.22v-.38-.19-.37-.2l.05-.32v-.25s0-.16.06-.25.05-.21.09-.32a1.69 1.69 0 0 1 .05-.17c0-.12.09-.25.14-.37v-.1c.07-.14.13-.27.21-.41s0 0 0-.08.16-.28.25-.41l.06-.07.28-.38.12-.13.26-.29.25-.22.17-.15.21-.17a4.33 4.33 0 0 1-.85-.54h-.05a4 4 0 0 1-.6-.6 5.88 5.88 0 0 1 .85-8.24l.71-.58a14.38 14.38 0 0 1-.87-2.26c-.07-.25-.14-.47-.21-.65-.54-1.54.32-2.81 1.3-4a4.22 4.22 0 0 1-.36-3c.06-.15.23-.77.37-1.33a43.38 43.38 0 0 1 1.37-4.41 3.57 3.57 0 0 1 1.75-2.14 2.58 2.58 0 0 1 2.15.27 10.77 10.77 0 0 1 1.39.84 10.06 10.06 0 0 0 1.75 1 16.58 16.58 0 0 0 2.93.59c.56.08 1.08.16 1.46.24a3.8 3.8 0 0 1 2.2 1.41v.06a9 9 0 0 1 .68 1 5.86 5.86 0 0 1 2-.13 5.8 5.8 0 0 1 3.95 2.12 4 4 0 0 1 1 3.23 5.83 5.83 0 0 1 .7 0 5.69 5.69 0 0 1 2.84 1.09l.22.17h.06a5.11 5.11 0 0 1 .83.82 5.85 5.85 0 0 1 1.3 3.92 5.85 5.85 0 0 1 5.09 3.73z"/>
  <path class="c" d="M258 37.82l-16.18 22.76h-.05a4 4 0 0 1-.6-.6 5.88 5.88 0 0 1 .85-8.24l.71-.58a14.38 14.38 0 0 1-.87-2.26c-.07-.25-.14-.47-.21-.65-.54-1.54.32-2.81 1.3-4a4.22 4.22 0 0 1-.36-3c.06-.15.23-.77.37-1.33a43.38 43.38 0 0 1 1.37-4.41 3.57 3.57 0 0 1 1.75-2.14 2.58 2.58 0 0 1 2.15.27 10.77 10.77 0 0 1 1.39.84 10.06 10.06 0 0 0 1.75 1 16.58 16.58 0 0 0 2.93.59c.56.08 1.08.16 1.46.24a3.8 3.8 0 0 1 2.24 1.45z"/>
  <path class="d" d="M269.45 45.35L252 69.84l-3.68 1.46h-.05a6.45 6.45 0 0 1-.75.24h-.17a6.46 6.46 0 0 1-.81.12 6.07 6.07 0 0 1-.8 0h-.12a5.93 5.93 0 0 1-.78-.14h-.17c-.22-.07-.45-.14-.66-.23l-.15-.06a6.21 6.21 0 0 1-.64-.33l-.22-.14a6.59 6.59 0 0 1-.6-.45l-.15-.14a5.49 5.49 0 0 1-.53-.55v-.05l-.11-.14a5.87 5.87 0 0 1-1-1.94v-.2l-.08-.34v-.33a2.13 2.13 0 0 0 0-.22v-.38-.19-.37-.2l.05-.32v-.25s0-.16.06-.25.05-.21.09-.32a1.69 1.69 0 0 1 .05-.17c0-.12.09-.25.14-.37v-.1c.07-.14.13-.27.21-.41s0 0 0-.08.16-.28.25-.41l.06-.07.28-.38.12-.13.26-.29.25-.22.17-.15.21-.17a4.33 4.33 0 0 1-.85-.54h-.05L258 37.76v.06a9 9 0 0 1 .68 1 5.86 5.86 0 0 1 2-.13 5.8 5.8 0 0 1 3.95 2.12 4 4 0 0 1 1 3.23 5.83 5.83 0 0 1 .7 0 5.69 5.69 0 0 1 2.84 1.09l.22.17z"/>
  <path class="e" d="M276.67 53.77a5.77 5.77 0 0 1-.05 4.42 2 2 0 0 1-.17.37 5.64 5.64 0 0 1-1.07 1.49 2.35 2.35 0 0 1-.25.25 5.8 5.8 0 0 1-1.72 1.06l-21.51 8.5 17.49-24.56h.06a5.11 5.11 0 0 1 .83.82 5.85 5.85 0 0 1 1.3 3.92 5.85 5.85 0 0 1 5.09 3.73z"/>
  <path class="g" d="M276.28 54.32a5.91 5.91 0 0 1 0 4.39 1.92 1.92 0 0 1-.16.36 5.37 5.37 0 0 1-1 1.47 2.19 2.19 0 0 1-.24.24 5.33 5.33 0 0 1-1.63 1l-24 9.48h-.05a5.9 5.9 0 0 1-.72.23h-.17a6 6 0 0 1-.78.1 5.66 5.66 0 0 1-.77 0h-.12a5.63 5.63 0 0 1-.75-.15h-.17c-.22-.07-.43-.15-.64-.23l-.15-.06a6.13 6.13 0 0 1-.62-.34l-.21-.14a6.64 6.64 0 0 1-.59-.45l-.15-.14a5.64 5.64 0 0 1-.52-.56v-.05l-.1-.14a6.13 6.13 0 0 1-1-1.94v-.2l-.09-.34v-.33a2.21 2.21 0 0 0 0-.22v-.38-.19-.36-.52-.24s0-.16.06-.25 0-.21.08-.31a1.67 1.67 0 0 1 0-.17c0-.12.08-.25.13-.37v-.1c.06-.14.12-.27.19-.4s0 0 0-.07.15-.27.23-.4l.05-.07.26-.37.12-.12.25-.29.24-.21.16-.15.2-.16a4.32 4.32 0 0 1-.82-.55h-.05a4.07 4.07 0 0 1-.58-.6 6 6 0 0 1-1.29-4.29 5.61 5.61 0 0 1 2-3.89l.67-.56a15 15 0 0 1-.87-2.26c-.07-.25-.14-.47-.21-.65-.54-1.54.27-2.79 1.19-4a4.36 4.36 0 0 1-.39-3c.06-.15.2-.77.34-1.32a43.1 43.1 0 0 1 1.25-4.37 3.38 3.38 0 0 1 1.65-2.1 2.44 2.44 0 0 1 2.07.3 10.73 10.73 0 0 1 1.35.86 10 10 0 0 0 1.7 1.06 15.79 15.79 0 0 0 2.83.63c.54.09 1 .17 1.41.26a3.82 3.82 0 0 1 2.15 1.56v.06a9.33 9.33 0 0 1 .66 1 5.43 5.43 0 0 1 1.91-.1 5.73 5.73 0 0 1 3.83 2.16 4.14 4.14 0 0 1 1 3.22 5.45 5.45 0 0 1 .68 0 5.55 5.55 0 0 1 2.75 1.12l.22.17h.06a5.23 5.23 0 0 1 .81.83 6.1 6.1 0 0 1 1.31 3.92 5.87 5.87 0 0 1 5.03 3.69z"/>
  <ellipse class="a" cx="259.57" cy="47.93" rx="3.2" ry="4.9" transform="rotate(-21.57 259.53 47.94)"/>
  <path class="b" d="M261.84 53.68c-2.33.92-5.16-.88-6.43-4.1s-.44-6.47 1.89-7.39 5.16.88 6.43 4.1.44 6.46-1.89 7.39zm-3.6-9.11c-.84.33-1.22 2.15-.46 4.07s2.27 3 3.12 2.66 1.22-2.15.46-4.07-2.28-3-3.12-2.66z"/>
  <ellipse class="b" cx="259.65" cy="48.19" rx="1.63" ry="2.24" transform="rotate(-21.57 259.615 48.203)"/>
  <ellipse class="a" cx="249.83" cy="51.63" rx="3.2" ry="4.9" transform="rotate(-21.57 249.795 51.636)"/>
  <path class="b" d="M252.1 57.37c-2.33.92-5.16-.88-6.43-4.1s-.44-6.47 1.89-7.39 5.16.88 6.43 4.1.45 6.47-1.89 7.39zm-3.6-9.11c-.84.33-1.22 2.15-.46 4.07s2.27 3 3.12 2.66 1.22-2.15.46-4.07-2.28-2.99-3.12-2.66z"/>
  <ellipse class="b" cx="249.91" cy="51.88" rx="1.63" ry="2.24" transform="rotate(-21.57 249.886 51.87)"/>
  <path class="a" d="M264.31 56.44l-12.26 4.84a1.79 1.79 0 0 0-.45 1.72c.56 1.42 4.19 1.31 8.11-.24s6.64-4 6.08-5.37a1.79 1.79 0 0 0-1.48-.95z"/>
  <path class="b" d="M260.17 63.9c-4 1.58-8.75 2.1-9.77-.48a2.91 2.91 0 0 1 .62-2.9l.22-.29 12.93-5.11.36.06a2.92 2.92 0 0 1 2.47 1.69c1 2.58-2.84 5.46-6.83 7.03zm-7.35-1.43c.56.3 2.94.42 6.41-.95s5.12-3.08 5.32-3.69l-.16-.06-11.5 4.55zM49.85 43.68a4.37 4.37 0 0 1 1.67 2.9 1.49 1.49 0 0 1 0 .31 4.28 4.28 0 0 1-.12 1.39 1.78 1.78 0 0 1-.07.26 4.4 4.4 0 0 1-.71 1.35L38.13 66.07a4.89 4.89 0 0 1-.4.45l-.1.09a4.9 4.9 0 0 1-.48.39 4.6 4.6 0 0 1-.53.3h-.08a4.49 4.49 0 0 1-.56.21h-.13c-.17 0-.35.08-.52.11h-.12a4.7 4.7 0 0 1-.54 0h-.27a5 5 0 0 1-.57-.06h-.15a4.16 4.16 0 0 1-.56-.16H33a4.45 4.45 0 0 1-1.38-.89l-.11-.12-.19-.19-.16-.2-.1-.13-.16-.24-.08-.12-.13-.25-.07-.14-.14-.12-.07-.18c0-.06 0-.12-.05-.19s0-.16-.07-.24a1.28 1.28 0 0 1 0-.13c0-.1 0-.2-.05-.3v-.08-.35a.35.35 0 0 1 0-.06v-.36a.52.52 0 0 0 0-.07v-.48c0-.1 0-.19.06-.29l.08-.24.05-.17.07-.19a3.28 3.28 0 0 1-.76 0h-.04a3 3 0 0 1-.62-.16 4.45 4.45 0 0 1-2.63-5.7l.24-.65a10.9 10.9 0 0 1-1.44-1.14l-.39-.35c-.95-.8-.88-2-.7-3.12a3.2 3.2 0 0 1-1.41-1.85c0-.12-.15-.59-.27-1a32.88 32.88 0 0 1-.82-3.4 2.71 2.71 0 0 1 .34-2.16 2 2 0 0 1 1.51-.65 8.16 8.16 0 0 1 1.23 0 7.63 7.63 0 0 0 1.55 0 12.57 12.57 0 0 0 2.14-.75c.4-.17.76-.32 1-.41a2.88 2.88 0 0 1 2 .14h.05a6.8 6.8 0 0 1 .82.39 4.44 4.44 0 0 1 1.3-.86 4.39 4.39 0 0 1 3.4-.13 3 3 0 0 1 1.89 1.73 4.42 4.42 0 0 1 .47-.26 4.32 4.32 0 0 1 2.25-.34h.27a3.87 3.87 0 0 1 .86.21 4.43 4.43 0 0 1 2.37 2.05 4.43 4.43 0 0 1 4.74.42z"/>
  <path class="c" d="M31.53 40.48l-1.78 21.11h-.05a3 3 0 0 1-.62-.16 4.45 4.45 0 0 1-2.63-5.7l.24-.65a10.9 10.9 0 0 1-1.44-1.14l-.39-.35c-.95-.8-.88-2-.7-3.12a3.2 3.2 0 0 1-1.41-1.85c0-.12-.15-.59-.27-1a32.88 32.88 0 0 1-.82-3.4 2.71 2.71 0 0 1 .34-2.08 2 2 0 0 1 1.51-.65 8.16 8.16 0 0 1 1.23 0 7.63 7.63 0 0 0 1.55 0 12.57 12.57 0 0 0 2.14-.75c.4-.17.76-.32 1-.41a2.88 2.88 0 0 1 2 .14z"/>
  <path class="d" d="M41.88 41L40 63.7l-1.84 2.37a4.89 4.89 0 0 1-.4.45l-.1.09a4.9 4.9 0 0 1-.48.39 4.6 4.6 0 0 1-.53.3h-.08a4.49 4.49 0 0 1-.56.21h-.13c-.17 0-.35.08-.52.11h-.12a4.7 4.7 0 0 1-.54 0h-.3a5 5 0 0 1-.57-.06h-.15a4.16 4.16 0 0 1-.56-.16H33a4.45 4.45 0 0 1-1.38-.89l-.11-.12-.19-.19-.16-.2-.1-.13-.16-.24-.08-.12-.13-.25-.07-.14-.14-.12-.07-.18c0-.06 0-.12-.05-.19s0-.16-.07-.24a1.28 1.28 0 0 1 0-.13c0-.1 0-.2-.05-.3v-.08-.35a.35.35 0 0 1 0-.06v-.36a.52.52 0 0 0 0-.07v-.48c0-.1 0-.19.06-.29l.08-.24.05-.17.07-.19a3.28 3.28 0 0 1-.76 0h-.04l1.78-21.12h.05a6.8 6.8 0 0 1 .82.39A4.44 4.44 0 0 1 33.6 40a4.39 4.39 0 0 1 3.4-.13 3 3 0 0 1 1.89 1.73 4.42 4.42 0 0 1 .47-.26 4.32 4.32 0 0 1 2.25-.34h.21z"/>
  <path class="e" d="M49.85 43.68a4.37 4.37 0 0 1 1.67 2.9 1.49 1.49 0 0 1 0 .31 4.28 4.28 0 0 1-.12 1.39 1.78 1.78 0 0 1-.07.26 4.4 4.4 0 0 1-.71 1.35L39.91 63.77 41.82 41h.06a3.87 3.87 0 0 1 .86.21 4.43 4.43 0 0 1 2.37 2.05 4.43 4.43 0 0 1 4.74.42z"/>
  <path class="g" d="M49.81 44.19a4.48 4.48 0 0 1 1.7 2.81 1.45 1.45 0 0 1 0 .3 4.07 4.07 0 0 1-.09 1.35 1.66 1.66 0 0 1-.06.25 4 4 0 0 1-.67 1.3l-12 15.45a4.47 4.47 0 0 1-.38.43l-.1.09a4.51 4.51 0 0 1-.47.37 4.29 4.29 0 0 1-.51.28h-.08a4.26 4.26 0 0 1-.55.2h-.13l-.51.09h-.12a4.65 4.65 0 0 1-.53 0h-.19a5 5 0 0 1-.56-.07h-.15a4.28 4.28 0 0 1-.55-.16l-.18.12a4.65 4.65 0 0 1-1.38-.89l-.11-.11-.19-.23-.16-.2-.1-.13-.16-.24-.08-.12-.13-.24-.07-.14-.09-.23-.07-.17-.06-.18c0-.08 0-.15-.07-.24a1.27 1.27 0 0 1 0-.13c0-.09 0-.19-.06-.29v-.08-.34a.34.34 0 0 1 0-.06v-.35a.5.5 0 0 0 0-.07v-.46c0-.1 0-.19.05-.28l.07-.23v-.16l.07-.18a3.28 3.28 0 0 1-.75 0h-.05a3.08 3.08 0 0 1-.61-.17 4.58 4.58 0 0 1-2.5-2.29 4.25 4.25 0 0 1-.21-3.3l.22-.63a11.4 11.4 0 0 1-1.44-1.14l-.39-.35c-1-.79-.9-1.92-.76-3a3.31 3.31 0 0 1-1.43-1.83c0-.12-.16-.58-.29-1a32.67 32.67 0 0 1-.87-3.33 2.56 2.56 0 0 1 .26-2 1.85 1.85 0 0 1 1.47-.6 8.14 8.14 0 0 1 1.21 0 7.59 7.59 0 0 0 1.52 0 12 12 0 0 0 2.09-.68c.39-.15.75-.29 1-.38a2.89 2.89 0 0 1 2 .18h.05a7.07 7.07 0 0 1 .82.39 4.11 4.11 0 0 1 1.2-.81 4.35 4.35 0 0 1 3.33-.07A3.14 3.14 0 0 1 39 41.93a4.13 4.13 0 0 1 .45-.24 4.2 4.2 0 0 1 2.23-.33h.27a4 4 0 0 1 .85.23 4.62 4.62 0 0 1 2.37 2 4.45 4.45 0 0 1 4.64.6z"/>
  <ellipse class="a" cx="36.44" cy="46.49" rx="2.42" ry="3.71" transform="rotate(-52.23 36.44 46.49)"/>
  <path class="b" d="M40.14 49.35c-1.17 1.5-3.7 1.42-5.78-.18s-2.79-4-1.62-5.55 3.7-1.42 5.78.18 2.78 4.05 1.62 5.55zm-5.87-4.55c-.42.54 0 1.87 1.28 2.83s2.64 1.07 3.06.53 0-1.87-1.28-2.83-2.64-1.07-3.06-.52z"/>
  <ellipse class="b" cx="36.59" cy="46.62" rx="1.23" ry="1.7" transform="rotate(-52.23 36.598 46.632)"/>
  <ellipse class="a" cx="31.52" cy="52.66" rx="2.42" ry="3.71" transform="rotate(-52.23 31.53 52.662)"/>
  <path class="b" d="M35.22 55.53c-1.17 1.5-3.7 1.42-5.78-.18s-2.79-4-1.62-5.55 3.7-1.42 5.78.18 2.79 4.02 1.62 5.55zM29.35 51c-.42.54 0 1.87 1.28 2.83s2.64 1.07 3.06.53 0-1.87-1.28-2.83-2.64-1.09-3.06-.53z"/>
  <ellipse class="b" cx="31.67" cy="52.79" rx="1.23" ry="1.7" transform="rotate(-52.23 31.678 52.798)"/>
  <path class="a" d="M42.82 50.2l-6.12 7.9a1.36 1.36 0 0 0 .3 1.26c.91.71 3.24-.77 5.19-3.29s2.8-5.14 1.89-5.85a1.36 1.36 0 0 0-1.26-.02z"/>
  <path class="b" d="M43 56.66c-2 2.57-4.89 4.75-6.55 3.46a2.21 2.21 0 0 1-.71-2.12v-.27l6.46-8.33.26-.1a2.21 2.21 0 0 1 2.24.16c1.69 1.28.3 4.63-1.7 7.2zm-5.34 1.91c.48 0 2.08-.86 3.81-3.09s2.14-4 2-4.46h-.13l-5.74 7.41a1 1 0 0 0 .07.14zM42.46 205.75a3.29 3.29 0 0 1 1.26 2.18 1.12 1.12 0 0 1 0 .23 3.21 3.21 0 0 1-.09 1 1.34 1.34 0 0 1-.05.19 3.31 3.31 0 0 1-.53 1l-9.41 12.15a3.68 3.68 0 0 1-.3.34l-.08.07a3.68 3.68 0 0 1-.36.29 3.46 3.46 0 0 1-.4.23h-.06a3.38 3.38 0 0 1-.42.16h-.1l-.39.08H30.3a3.13 3.13 0 0 1-.42-.12h-.14a3.35 3.35 0 0 1-1-.67l-.08-.09-.14-.14-.12-.15-.08-.1-.12-.18-.06-.09L28 222l-.05-.1-.07-.17-.05-.13v-.32a1 1 0 0 1 0-.1v-.28-.26-.27a.39.39 0 0 0 0-.05v-.37-.22l.06-.18v-.12l.05-.14a2.47 2.47 0 0 1-.57 0 2.26 2.26 0 0 1-.46-.12 3.35 3.35 0 0 1-2-4.29l.18-.49a8.19 8.19 0 0 1-1.08-.86l-.29-.26a2.34 2.34 0 0 1-.53-2.34 2.4 2.4 0 0 1-1.06-1.39c0-.09-.11-.45-.2-.76a24.73 24.73 0 0 1-.61-2.56 2 2 0 0 1 .24-1.56 1.47 1.47 0 0 1 1.13-.49 6.14 6.14 0 0 1 .92 0 5.74 5.74 0 0 0 1.16 0 9.45 9.45 0 0 0 1.61-.56c.3-.13.57-.24.79-.31a2.17 2.17 0 0 1 1.53.11 5.11 5.11 0 0 1 .62.29 3.34 3.34 0 0 1 .93-.64 3.3 3.3 0 0 1 2.55-.11 2.27 2.27 0 0 1 1.42 1.3l.35-.19a3.25 3.25 0 0 1 1.71-.29h.16a2.91 2.91 0 0 1 .64.16 3.33 3.33 0 0 1 1.78 1.54 3.33 3.33 0 0 1 3.6.28z"/>
  <path class="c" d="M28.69 203.34l-1.34 15.87a2.26 2.26 0 0 1-.46-.12 3.35 3.35 0 0 1-2-4.29l.18-.49a8.19 8.19 0 0 1-1.08-.86l-.29-.26a2.34 2.34 0 0 1-.53-2.34 2.4 2.4 0 0 1-1.06-1.39c0-.09-.11-.45-.2-.76a24.73 24.73 0 0 1-.61-2.56 2 2 0 0 1 .24-1.56 1.47 1.47 0 0 1 1.13-.49 6.14 6.14 0 0 1 .92 0 5.74 5.74 0 0 0 1.16 0 9.45 9.45 0 0 0 1.61-.56c.3-.13.57-.24.79-.31a2.17 2.17 0 0 1 1.53.11z"/>
  <path class="d" d="M36.47 203.72L35 220.8l-1.38 1.78a3.68 3.68 0 0 1-.3.34l-.08.07a3.68 3.68 0 0 1-.36.29 3.46 3.46 0 0 1-.4.23h-.06a3.38 3.38 0 0 1-.42.16h-.1l-.39.08H30.3a3.13 3.13 0 0 1-.42-.12h-.14a3.35 3.35 0 0 1-1-.67l-.08-.09-.14-.14-.12-.15-.08-.1-.12-.18-.06-.09L28 222l-.05-.1-.07-.17-.05-.13v-.32a1 1 0 0 1 0-.1v-.28-.26-.27a.39.39 0 0 0 0-.05v-.37-.22l.06-.18v-.12l.05-.14a2.47 2.47 0 0 1-.57 0l1.34-15.88a5.11 5.11 0 0 1 .62.29 3.34 3.34 0 0 1 .93-.64 3.3 3.3 0 0 1 2.55-.11 2.27 2.27 0 0 1 1.42 1.3l.35-.19a3.25 3.25 0 0 1 1.71-.29h.16z"/>
  <path class="e" d="M42.46 205.75a3.29 3.29 0 0 1 1.26 2.18 1.12 1.12 0 0 1 0 .23 3.21 3.21 0 0 1-.09 1 1.34 1.34 0 0 1-.05.19 3.31 3.31 0 0 1-.53 1L35 220.85l1.44-17.14a2.91 2.91 0 0 1 .64.16 3.33 3.33 0 0 1 1.78 1.54 3.33 3.33 0 0 1 3.6.34z"/>
  <path class="b" d="M31.59 225h-.34a5 5 0 0 1-.55-.07h-.15l-.27-.07-.39.06-.33-.33a4.92 4.92 0 0 1-1.29-.87l-.79-1-.07-.11-.28-.55-.1-.24c0-.11-.06-.18-.08-.26v-.14l-.07-.31v-.77-.22a4.89 4.89 0 0 1-2.57-2.41 4.67 4.67 0 0 1-.38-3l-.29-.25-.08-.07-.23-.2a3.37 3.37 0 0 1-1.33-2.88 3.41 3.41 0 0 1-1-1.72c0-.12-.11-.37-.18-.59a25.83 25.83 0 0 1-.7-2.68 3.44 3.44 0 0 1 .39-2.53l.11-.15v-.05a2.83 2.83 0 0 1 2.12-.94 6.89 6.89 0 0 1 1 0 6.11 6.11 0 0 0 .89 0 10.37 10.37 0 0 0 1.25-.43c.32-.13.62-.24.85-.32a3.56 3.56 0 0 1 2.44.15 4.54 4.54 0 0 1 .5-.25 4.71 4.71 0 0 1 3.61-.08 4.16 4.16 0 0 1 1.42.88 4.58 4.58 0 0 1 1.67-.1h.16l.33.06a4.5 4.5 0 0 1 .68.2 5 5 0 0 1 1.8 1.2 4.89 4.89 0 0 1 3.87.94 4.81 4.81 0 0 1 1.83 3 2.45 2.45 0 0 1 0 .4 4.51 4.51 0 0 1-.09 1.4 2.84 2.84 0 0 1-.09.35 4.5 4.5 0 0 1-.74 1.43l-9.16 11.81-.27.29-.15.13a4.64 4.64 0 0 1-.49.39l-.1.06a4.69 4.69 0 0 1-.48.26 4.71 4.71 0 0 1-.69.26h-.1a5.76 5.76 0 0 1-.58.11H32a4.84 4.84 0 0 1-.41.21zm0-2.93h.46l.19-.06h.07l.21-.11h.06l.13-.11.06-.05.12-.13.14-.18L42 209.8a1.59 1.59 0 0 0 .26-.51v-.1a1.6 1.6 0 0 0 0-.53v-.12a2 2 0 0 0-.74-1.25 1.89 1.89 0 0 0-2-.24l-1.24.61-.68-1.2a2 2 0 0 0-1-.89 1.49 1.49 0 0 0-.31-.09h-.2a1.73 1.73 0 0 0-.88.14l-.16.08-1.47.91-.66-1.61c0-.08-.12-.3-.59-.48a1.82 1.82 0 0 0-1.39 0 1.69 1.69 0 0 0-.49.33l-.78.74-.94-.53a3.81 3.81 0 0 0-.45-.21 1 1 0 0 0-.55-.12l-.68.25a9.13 9.13 0 0 1-1.92.6 6.61 6.61 0 0 1-1.45 0 4.76 4.76 0 0 0-.68 0v.25a23.1 23.1 0 0 0 .6 2.28c.12.39.23.78.26.93a1.65 1.65 0 0 0 .45.46l.75.5-.12.9c-.1.78 0 .91.06 1l.35.31a7.35 7.35 0 0 0 .86.69l1 .62-.51 1.48a1.75 1.75 0 0 0 .09 1.36 2 2 0 0 0 1.09 1H28.34l2.18-.11-.87 2.74V220.28l.34.83.07.09.22.23a2 2 0 0 0 .57.36l.27.08h.31zM23.9 209z"/>
  <ellipse class="a" cx="32.37" cy="207.86" rx="1.82" ry="2.79" transform="rotate(-52.23 32.383 207.873)"/>
  <path class="b" d="M35.16 210c-.88 1.13-2.79 1.07-4.35-.14s-2.1-3-1.22-4.17 2.78-1.07 4.35.14 2.06 3.05 1.22 4.17zm-4.41-3.42c-.32.41 0 1.41 1 2.13s2 .81 2.3.4 0-1.41-1-2.13-1.99-.79-2.31-.39z"/>
  <ellipse class="b" cx="32.49" cy="207.96" rx="0.93" ry="1.28" transform="rotate(-52.23 32.495 207.98)"/>
  <ellipse class="a" cx="28.68" cy="212.5" rx="1.82" ry="2.79" transform="rotate(-52.23 28.69 212.515)"/>
  <path class="b" d="M31.46 214.65c-.88 1.13-2.79 1.07-4.35-.14s-2.1-3-1.22-4.17 2.78-1.07 4.35.14 2.1 3.04 1.22 4.17zM27 211.23c-.32.41 0 1.41 1 2.13s2 .81 2.3.4 0-1.41-1-2.13-1.94-.8-2.3-.4z"/>
  <ellipse class="b" cx="28.79" cy="212.6" rx="0.93" ry="1.28" transform="rotate(-52.23 28.803 212.62)"/>
  <path class="a" d="M37.17 210.65l-4.6 5.94a1 1 0 0 0 .26 1c.69.53 2.44-.58 3.91-2.47s2.11-3.87 1.42-4.4a1 1 0 0 0-.99-.07z"/>
  <path class="b" d="M37.32 215.51c-1.5 1.93-3.68 3.57-4.93 2.6a1.66 1.66 0 0 1-.54-1.6v-.21l4.87-6.3.2-.07a1.66 1.66 0 0 1 1.69.12c1.25 1.01.2 3.53-1.29 5.46zm-4 1.43c.36 0 1.56-.65 2.87-2.33s1.61-3 1.54-3.36h-.09l-4.32 5.57a.74.74 0 0 0-.02.12zM90 290.76a4.18 4.18 0 0 1-.83 3.09 1.42 1.42 0 0 1-.19.23 4.09 4.09 0 0 1-1 .86l-.22.13a4.2 4.2 0 0 1-1.39.43L66.9 298a4.67 4.67 0 0 1-.57 0h-.13a4.68 4.68 0 0 1-.59-.06 4.4 4.4 0 0 1-.56-.16h-.08a4.29 4.29 0 0 1-.52-.24l-.11-.06c-.14-.09-.29-.18-.43-.28l-.1-.07a4.5 4.5 0 0 1-.39-.35l-.13-.14a4.77 4.77 0 0 1-.34-.42l-.08-.12a4 4 0 0 1-.27-.48v-.12a4.25 4.25 0 0 1-.33-1.53v-.15-.26-.24a1.55 1.55 0 0 0 0-.16c0-.1 0-.18.06-.27s0-.09 0-.13l.08-.25v-.14l.09-.22.07-.17.09-.16.12-.21.07-.11.17-.24.05-.06.22-.25.25-.24h.05l.26-.21.11-.07.24-.16.21-.11.15-.08.18-.08a3.13 3.13 0 0 1-.5-.53 2.88 2.88 0 0 1-.31-.53 4.26 4.26 0 0 1 2.07-5.86l.6-.28a10.42 10.42 0 0 1-.2-1.74v-.5c-.1-1.18.73-1.91 1.63-2.58a3.06 3.06 0 0 1 .3-2.2c.07-.1.3-.5.5-.87a31.44 31.44 0 0 1 1.75-2.85 2.59 2.59 0 0 1 1.61-1.19 1.87 1.87 0 0 1 1.46.58 7.8 7.8 0 0 1 .82.84 7.29 7.29 0 0 0 1 1 12 12 0 0 0 2 .94c.38.16.73.3 1 .43a2.76 2.76 0 0 1 1.28 1.47 6.5 6.5 0 0 1 .3.82 4.25 4.25 0 0 1 1.42.26 4.2 4.2 0 0 1 2.39 2.19 2.88 2.88 0 0 1 .11 2.44 4.22 4.22 0 0 1 .49.14 4.13 4.13 0 0 1 1.8 1.27l.12.16a3.7 3.7 0 0 1 .44.72 4.24 4.24 0 0 1 .21 3 4.24 4.24 0 0 1 2.97 3.63z"/>
  <path class="c" d="M79.74 276.21l-15.48 13.07a2.88 2.88 0 0 1-.31-.53 4.26 4.26 0 0 1 2.05-5.67l.6-.28a10.42 10.42 0 0 1-.2-1.74v-.5c-.1-1.18.73-1.91 1.63-2.58a3.06 3.06 0 0 1 .3-2.2c.07-.1.3-.5.5-.87a31.44 31.44 0 0 1 1.75-2.85 2.59 2.59 0 0 1 1.61-1.19 1.87 1.87 0 0 1 1.46.58 7.8 7.8 0 0 1 .82.84 7.29 7.29 0 0 0 1 1 12 12 0 0 0 2 .94c.38.16.73.3 1 .43a2.76 2.76 0 0 1 1.28 1.47z"/>
  <path class="d" d="M86.39 283.55l-16.65 14.06-2.84.39a4.67 4.67 0 0 1-.57 0h-.13a4.68 4.68 0 0 1-.59-.06 4.4 4.4 0 0 1-.56-.16h-.08a4.29 4.29 0 0 1-.52-.24l-.11-.06c-.14-.09-.29-.18-.43-.28l-.1-.07a4.5 4.5 0 0 1-.39-.35l-.13-.14a4.77 4.77 0 0 1-.34-.42l-.08-.12a4 4 0 0 1-.27-.48v-.12a4.25 4.25 0 0 1-.33-1.53v-.15-.26-.24a1.55 1.55 0 0 0 0-.16c0-.1 0-.18.06-.27s0-.09 0-.13l.08-.25v-.14l.09-.22.07-.17.09-.16.12-.21.07-.11.17-.24.05-.06.22-.25.25-.24h.05l.26-.21.11-.07.24-.16.21-.11.15-.08.18-.08a3.13 3.13 0 0 1-.5-.53l15.48-13.07a6.5 6.5 0 0 1 .3.82 4.25 4.25 0 0 1 1.42.26 4.2 4.2 0 0 1 2.39 2.19 2.88 2.88 0 0 1 .11 2.44 4.22 4.22 0 0 1 .49.14 4.13 4.13 0 0 1 1.8 1.27l.12.16z"/>
  <path class="e" d="M90 290.76a4.18 4.18 0 0 1-.83 3.09 1.42 1.42 0 0 1-.19.23 4.09 4.09 0 0 1-1 .86l-.22.13a4.2 4.2 0 0 1-1.39.43l-16.63 2.11 16.7-14.11a3.7 3.7 0 0 1 .44.72 4.24 4.24 0 0 1 .21 3 4.24 4.24 0 0 1 2.91 3.54z"/>
  <path class="b" d="M62.89 298.28l-.06-.06-.11-.13-.12-.14a6.41 6.41 0 0 1-.43-.56l-.1-.17-.18-.3-.4-.3V296a6.26 6.26 0 0 1-.38-1.95l.16-1.59a1.33 1.33 0 0 1 0-.16l.24-.75.13-.31c.06-.13.1-.21.16-.3l.09-.16.21-.34.17-.25.09-.12.11-.14v-.07l.2-.2.19-.2a6.22 6.22 0 0 1-.14-4.48 5.94 5.94 0 0 1 2.4-3.08v-.63-.39a4.29 4.29 0 0 1 1.47-3.55 4.34 4.34 0 0 1 .66-2.43c.08-.14.23-.43.37-.69a32.85 32.85 0 0 1 1.78-3 4.37 4.37 0 0 1 2.6-1.92h.34a3.6 3.6 0 0 1 2.75 1.06 8.76 8.76 0 0 1 .91 1 7.77 7.77 0 0 0 .76.83 13.18 13.18 0 0 0 1.51.74c.4.17.78.34 1 .48a4.52 4.52 0 0 1 2.06 2.32 5.77 5.77 0 0 1 .68.22 6 6 0 0 1 3.36 3.06 5.29 5.29 0 0 1 .49 2.07 5.82 5.82 0 0 1 1.59 1.42l.13.17.24.35a5.72 5.72 0 0 1 .43.79 6.33 6.33 0 0 1 .54 2.7 6.22 6.22 0 0 1 2.63 4.33 6.12 6.12 0 0 1-1.09 4.37 3.11 3.11 0 0 1-.31.4 5.74 5.74 0 0 1-1.34 1.18 3.61 3.61 0 0 1-.39.23 5.72 5.72 0 0 1-2 .62L67.47 300h-.75a5.9 5.9 0 0 1-.79-.1h-.14a6 6 0 0 1-.67-.2h-.05a6 6 0 0 1-.85-.39l-.11-.07a7.32 7.32 0 0 1-.63-.42l-.1-.08a6.16 6.16 0 0 1-.49-.46zm2.63-2.63a1.58 1.58 0 0 0 .18.17l.3.18.23.11h.09l.29.09H67.53l18.33-2.2a2 2 0 0 0 .69-.22l.12-.07a2 2 0 0 0 .51-.44l.1-.11a2.48 2.48 0 0 0 .46-1.8 2.4 2.4 0 0 0-1.56-2l-1.66-.57.47-1.69a2.55 2.55 0 0 0-.13-1.73 1.9 1.9 0 0 0-.21-.36l-.15-.2a2.2 2.2 0 0 0-.91-.66l-.22-.07-2.15-.5.86-2a1.11 1.11 0 0 0-.1-1 2.32 2.32 0 0 0-1.27-1.23 2.15 2.15 0 0 0-.74-.15H78.6l-.37-1.32a4.84 4.84 0 0 0-.21-.59 1.27 1.27 0 0 0-.39-.6c-.23-.12-.52-.24-.84-.38a11.61 11.61 0 0 1-2.28-1.31 8.4 8.4 0 0 1-1.29-1.32 6.06 6.06 0 0 0-.59-.64l-.2.26a29.37 29.37 0 0 0-1.51 2.59c-.25.46-.49.9-.59 1.07a2.1 2.1 0 0 0 0 .82l.22 1.13-.92.7c-.79.61-.84.8-.83.93s0 .37 0 .59a9.35 9.35 0 0 0 .16 1.39l.34 1.45-1.91.93a2.22 2.22 0 0 0-1.14 1.31 2.53 2.53 0 0 0 .08 1.88 1.1 1.1 0 0 0 .12.21l.1.13.14.14 2.07 1.86-3.25 1.68-.11.12-.12.15-.44 1.05v.55a2.56 2.56 0 0 0 .19.83v.06a2.61 2.61 0 0 0 .17.31l.07.11.17.21zM70.31 277z"/>
  <ellipse class="a" cx="78.99" cy="283.59" rx="2.32" ry="3.55" transform="rotate(-7.23 79.087 283.815)"/>
  <path class="b" d="M79.56 288c-1.8.23-3.47-1.54-3.78-4s.85-4.62 2.65-4.85 3.47 1.54 3.78 4-.85 4.65-2.65 4.85zm-.89-7c-.65.08-1.24 1.29-1.05 2.78s1.06 2.51 1.71 2.43 1.24-1.29 1.05-2.78-1.07-2.53-1.72-2.43z"/>
  <ellipse class="b" cx="79" cy="283.78" rx="1.18" ry="1.63" transform="rotate(-7.23 79.077 283.973)"/>
  <ellipse class="a" cx="71.5" cy="284.44" rx="2.32" ry="3.55" transform="rotate(-7.23 71.568 284.61)"/>
  <path class="b" d="M72.06 288.88c-1.8.23-3.47-1.54-3.78-4s.85-4.62 2.65-4.85 3.47 1.54 3.78 4-.85 4.62-2.65 4.85zm-.89-7c-.65.08-1.24 1.29-1.05 2.78s1.06 2.51 1.71 2.43 1.24-1.29 1.05-2.78-1.06-2.56-1.71-2.48z"/>
  <ellipse class="b" cx="71.51" cy="284.63" rx="1.18" ry="1.63" transform="rotate(-7.23 71.553 284.848)"/>
  <path class="a" d="M80.8 290.41l-9.47 1.2a1.3 1.3 0 0 0-.62 1.09c.14 1.1 2.71 1.67 5.74 1.29s5.37-1.58 5.23-2.68c-.06-.36-.37-.67-.88-.9z"/>
  <path class="b" d="M76.55 294.91c-3.08.39-6.52-.1-6.77-2.09a2.11 2.11 0 0 1 1-1.93l.2-.17 10-1.27.24.11a2.11 2.11 0 0 1 1.41 1.63c.21 2-2.99 3.33-6.08 3.72zm-4.9-2.32c.34.31 2 .82 4.67.48s4.15-1.25 4.4-1.64l-.1-.07-8.89 1.13zM284.77 205.43a4.57 4.57 0 0 1-3.22 1.35 1.55 1.55 0 0 1-.32 0 4.47 4.47 0 0 1-1.42-.31 1.86 1.86 0 0 1-.26-.11 4.59 4.59 0 0 1-1.31-.91l-15.1-15.1a5.11 5.11 0 0 1-.41-.47l-.08-.12a5.12 5.12 0 0 1-.34-.55 4.8 4.8 0 0 1-.24-.59v-.09a4.69 4.69 0 0 1-.15-.61v-.14-.55a1.2 1.2 0 0 1 0-.13 4.91 4.91 0 0 1 0-.57v-.2a5.22 5.22 0 0 1 .13-.58 1.49 1.49 0 0 0 .05-.15 4.35 4.35 0 0 1 .24-.56l.07-.12a4.65 4.65 0 0 1 1.1-1.32l.13-.1.22-.17.23-.14.15-.09.27-.13.13-.06.27-.1.15-.05.25-.06H266.93l.37.05h.07l.36.08h.13l.29.1.24.11.17.08.19.1a3.42 3.42 0 0 1 .12-.78v-.05a3.14 3.14 0 0 1 .25-.62 4.65 4.65 0 0 1 6.25-2l.64.33a11.38 11.38 0 0 1 1.37-1.34l.41-.36c.95-.88 2.14-.65 3.32-.32a3.34 3.34 0 0 1 2.1-1.22c.13 0 .63-.08 1.08-.15a34.35 34.35 0 0 1 3.64-.4 2.83 2.83 0 0 1 2.11.6 2 2 0 0 1 .48 1.65 8.52 8.52 0 0 1-.17 1.27 8 8 0 0 0-.2 1.6 13.13 13.13 0 0 0 .5 2.31c.12.43.23.83.29 1.14a3 3 0 0 1-.41 2.09v.05a7.1 7.1 0 0 1-.51.8 4.64 4.64 0 0 1 .72 1.4 4.59 4.59 0 0 1-.29 3.53 3.15 3.15 0 0 1-2 1.73 4.62 4.62 0 0 1 .21.52 4.51 4.51 0 0 1 .1 2.4 1.89 1.89 0 0 1-.05.21.22.22 0 0 1 0 .06 4 4 0 0 1-.33.86 4.63 4.63 0 0 1-2.44 2.18 4.63 4.63 0 0 1-1.17 4.72z"/>
  <path class="c" d="M290.49 186.88l-21.64-4.62v-.05a3.14 3.14 0 0 1 .25-.62 4.65 4.65 0 0 1 6.25-2l.64.33a11.38 11.38 0 0 1 1.37-1.34l.41-.36c.95-.88 2.14-.65 3.32-.32a3.34 3.34 0 0 1 2.1-1.22c.13 0 .63-.08 1.08-.15a34.35 34.35 0 0 1 3.64-.4 2.83 2.83 0 0 1 2.11.6 2 2 0 0 1 .48 1.65 8.52 8.52 0 0 1-.17 1.27 8 8 0 0 0-.2 1.6 13.13 13.13 0 0 0 .5 2.31c.12.43.23.83.29 1.14a3 3 0 0 1-.41 2.09z"/>
  <path class="d" d="M288.61 197.53l-23.29-5-2.22-2.22a5.11 5.11 0 0 1-.41-.47l-.08-.12a5.12 5.12 0 0 1-.34-.55 4.8 4.8 0 0 1-.24-.59v-.09a4.69 4.69 0 0 1-.15-.61v-.14-.55a1.2 1.2 0 0 1 0-.13 4.91 4.91 0 0 1 0-.57v-.2a5.22 5.22 0 0 1 .13-.58 1.49 1.49 0 0 0 .05-.15 4.35 4.35 0 0 1 .24-.56l.07-.12a4.65 4.65 0 0 1 1.1-1.32l.13-.1.22-.17.23-.14.15-.09.27-.13.13-.06.27-.1.15-.05.25-.06H266.89l.37.05h.07l.36.08h.13l.29.1.24.11.17.08.19.1a3.42 3.42 0 0 1 .12-.78v-.05l21.65 4.62v.05a7.1 7.1 0 0 1-.51.8 4.64 4.64 0 0 1 .72 1.4 4.59 4.59 0 0 1-.29 3.53 3.15 3.15 0 0 1-2 1.73 4.62 4.62 0 0 1 .21.52 4.51 4.51 0 0 1 .1 2.4 1.89 1.89 0 0 1-.05.21.22.22 0 0 1-.05-.08z"/>
  <path class="e" d="M284.77 205.43a4.57 4.57 0 0 1-3.22 1.35 1.55 1.55 0 0 1-.32 0 4.47 4.47 0 0 1-1.42-.31 1.86 1.86 0 0 1-.26-.11 4.59 4.59 0 0 1-1.31-.91l-12.95-12.95 23.37 5a.22.22 0 0 1 0 .06 4 4 0 0 1-.33.86 4.63 4.63 0 0 1-2.44 2.18 4.63 4.63 0 0 1-1.12 4.83z"/>
  <path class="g" d="M284.25 205.32a4.68 4.68 0 0 1-3.18 1.39 1.52 1.52 0 0 1-.31 0 4.25 4.25 0 0 1-1.38-.27 1.74 1.74 0 0 1-.25-.1 4.22 4.22 0 0 1-1.26-.87L263.4 191a4.67 4.67 0 0 1-.39-.45l-.08-.11a4.71 4.71 0 0 1-.32-.53 4.48 4.48 0 0 1-.22-.57v-.09a4.45 4.45 0 0 1-.13-.59v-.13-.54a1.17 1.17 0 0 1 0-.13 4.86 4.86 0 0 1 .05-.55v-.2a5.26 5.26 0 0 1 .14-.57 1.53 1.53 0 0 0 .06-.15 4.47 4.47 0 0 1 .24-.55l.07-.12a4.85 4.85 0 0 1 1.11-1.31l.13-.1.22-.17.23-.14.15-.09.27-.13.13-.06.27-.11.15-.06.25-.07.19-.05H267.77l.35.07h.13l.29.09.23.1.16.07.18.09a3.42 3.42 0 0 1 .14-.77v-.05a3.22 3.22 0 0 1 .25-.61 4.79 4.79 0 0 1 2.71-2.29 4.44 4.44 0 0 1 3.45.21l.62.31a11.91 11.91 0 0 1 1.37-1.34l.41-.36c.95-.88 2.11-.68 3.26-.38a3.45 3.45 0 0 1 2.08-1.24c.13 0 .62-.09 1.06-.17a34.13 34.13 0 0 1 3.56-.47 2.68 2.68 0 0 1 2 .54 1.93 1.93 0 0 1 .43 1.6 8.5 8.5 0 0 1-.2 1.25 7.93 7.93 0 0 0-.23 1.57 12.5 12.5 0 0 0 .43 2.25c.11.42.2.81.26 1.11a3 3 0 0 1-.45 2.05v.05a7.38 7.38 0 0 1-.51.8 4.3 4.3 0 0 1 .68 1.35 4.54 4.54 0 0 1-.37 3.46 3.28 3.28 0 0 1-2 1.73 4.31 4.31 0 0 1 .19.5 4.39 4.39 0 0 1 0 2.35 1.91 1.91 0 0 1-.06.21.22.22 0 0 1 0 .06 4.14 4.14 0 0 1-.35.85 4.83 4.83 0 0 1-2.43 2.19 4.65 4.65 0 0 1-1.16 4.71z"/>
  <ellipse class="a" cx="283.63" cy="191.17" rx="3.88" ry="2.53" transform="rotate(-45 283.633 191.165)"/>
  <path class="b" d="M280.17 194.63c-1.41-1.41-1-4 1-6s4.56-2.36 6-1 1 4-1 6-4.6 2.37-6 1zm5.48-5.48c-.51-.51-1.94-.21-3.1 1s-1.46 2.6-1 3.1 1.94.21 3.1-1 1.51-2.6 1-3.11z"/>
  <ellipse class="b" cx="283.46" cy="191.31" rx="1.78" ry="1.29" transform="rotate(-45 283.462 191.306)"/>
  <ellipse class="a" cx="277.88" cy="185.26" rx="3.88" ry="2.53" transform="rotate(-45 277.877 185.26)"/>
  <path class="b" d="M274.42 188.72c-1.41-1.41-1-4 1-6s4.56-2.36 6-1 1 4-1 6-4.6 2.4-6 1zm5.48-5.48c-.51-.51-1.94-.21-3.1 1s-1.46 2.6-1 3.1 1.94.21 3.1-1 1.51-2.6 1-3.11z"/>
  <ellipse class="b" cx="277.72" cy="185.4" rx="1.78" ry="1.29" transform="rotate(-45 277.718 185.406)"/>
  <path class="a" d="M278.94 197.29l-7.38-7.38a1.42 1.42 0 0 0-1.36.19c-.85.85.37 3.46 2.73 5.82s5 3.58 5.82 2.73a1.42 1.42 0 0 0 .19-1.36z"/>
  <path class="b" d="M272.22 196.64c-2.4-2.4-4.28-5.69-2.73-7.25a2.31 2.31 0 0 1 2.3-.46l.28.07 7.79 7.79.07.28a2.31 2.31 0 0 1-.46 2.3c-1.56 1.55-4.85-.37-7.25-2.73zm-1.27-5.79c0 .5.62 2.27 2.71 4.36s3.85 2.75 4.36 2.71a1 1 0 0 0 0-.13l-6.93-6.93z"/>
  <path class="h" d="M261.8 251.33l31.78 12.03M259.2 235.76s15.87 6.14 31.78 12 23.78-8.56 5.78-15.05M251.59 260.2s15.87 6.13 31.62 12.46 11.85 22.33-5.84 15"/>
  <path class="b" d="M121.23 106.1a17.18 17.18 0 0 1-7.2-2 2.08 2.08 0 0 1 1.78-3.76c6 2.86 7.47 1.39 9.63-.84.35-.36.7-.72 1.06-1.06a2.08 2.08 0 1 1 2.85 3c-.32.3-.62.61-.93.92-1.95 2.07-3.96 3.74-7.19 3.74z"/>
  <circle class="b" cx="68.39" cy="111.3" r="3.51"/>
</svg>
