<svg xmlns="http://www.w3.org/2000/svg" viewBox="0 0 60 60">
  <defs>
    <style>
      .a{fill:#fe5294;}.b{fill:#fff;}
    </style>
  </defs>
  <title>
    Artboard 18 copy 2
  </title>
  <path class="a" d="M0 0h60v60H0z"/>
  <path class="b" d="M39 34.17a2 2 0 0 1-.71-.13L19 26.74A2 2 0 0 1 20.4 23l19.28 7.3a2 2 0 0 1-.68 3.87zM41.71 25.57a14.53 14.53 0 0 1-5-1c-9.56-3.54-19.21-7.27-19.31-7.31a2 2 0 0 1 1.44-3.73c.1 0 9.72 3.76 19.25 7.29 3.24 1.2 5.52.69 6.48-.12a1.42 1.42 0 0 0 .57-1.39c-.19-1.08-1.58-2.66-4.92-3.87a2 2 0 1 1 1.36-3.76c5.83 2.1 7.21 5.25 7.5 6.93a5.38 5.38 0 0 1-1.95 5.16 8.34 8.34 0 0 1-5.42 1.8zM34.08 50.07a15 15 0 0 1-5.71-1.29 2 2 0 0 1 1.53-3.7c3.28 1.35 5.37 1.12 6.24.45a1.42 1.42 0 0 0 .51-1.41c-.17-1.24-1.51-3.15-4.72-4.44-9.43-3.79-19.05-7.51-19.15-7.55a2 2 0 1 1 1.44-3.73c.1 0 9.75 3.77 19.2 7.57 4.07 1.64 6.75 4.48 7.19 7.6a5.37 5.37 0 0 1-2 5.13 7.19 7.19 0 0 1-4.53 1.37z"/>
</svg>
