<svg id="Layer_1" data-name="Layer 1" xmlns="http://www.w3.org/2000/svg" viewBox="0 0 60 60"><defs><style>.cls-1{fill:#033562;}.cls-2{fill:#fadf12;}</style></defs><title>Artboard 18</title><rect class="cls-1" x="27.31" y="22.2" width="5.39" height="15.6" rx="1.29" ry="1.29" transform="translate(30 -12.43) rotate(45)"/><rect class="cls-1" x="27.31" y="22.2" width="5.39" height="15.6" rx="1.29" ry="1.29" transform="translate(-12.43 30) rotate(-45)"/><path class="cls-2" d="M55.47,5.51l-2-2a1.3,1.3,0,0,1,0-1.83L55.19,0H3.81l2.7,2.7a1.3,1.3,0,0,1,0,1.83l-2,2a1.3,1.3,0,0,1-1.83,0L0,3.81V56.19l2.7-2.7a1.3,1.3,0,0,1,1.83,0l2,2a1.3,1.3,0,0,1,0,1.83L3.81,60H56.19l-2.7-2.7a1.3,1.3,0,0,1,0-1.83l2-2a1.3,1.3,0,0,1,1.83,0l2.7,2.7V2.81l-2.7,2.7A1.3,1.3,0,0,1,55.47,5.51Z"/><path class="cls-1" d="M4.53,6.51l2-2a1.3,1.3,0,0,0,0-1.83L3.81,0H0V3.81l2.7,2.7A1.3,1.3,0,0,0,4.53,6.51Z"/><path class="cls-1" d="M55.19,0l-1.7,1.7a1.3,1.3,0,0,0,0,1.83l2,2a1.3,1.3,0,0,0,1.83,0L60,2.81V0Z"/><path class="cls-1" d="M55.47,53.49l-2,2a1.3,1.3,0,0,0,0,1.83l2.7,2.7H60V56.19l-2.7-2.7A1.3,1.3,0,0,0,55.47,53.49Z"/><path class="cls-1" d="M6.51,55.47l-2-2a1.3,1.3,0,0,0-1.83,0L0,56.19V60H3.81l2.7-2.7A1.3,1.3,0,0,0,6.51,55.47Z"/><path class="cls-1" d="M33.81,30l2.7-2.7a1.3,1.3,0,0,0,0-1.83l-2-2a1.3,1.3,0,0,0-1.83,0L30,26.19l-2.7-2.7a1.3,1.3,0,0,0-1.83,0l-2,2a1.3,1.3,0,0,0,0,1.83l2.7,2.7-2.7,2.7a1.3,1.3,0,0,0,0,1.83l2,2a1.3,1.3,0,0,0,1.83,0l2.7-2.7,2.7,2.7a1.3,1.3,0,0,0,1.83,0l2-2a1.3,1.3,0,0,0,0-1.83Z"/></svg>