<svg xmlns="http://www.w3.org/2000/svg" viewBox="0 0 246.33 56">
  <defs>
    <style>
      .a{fill:#033562;}.b{fill:#fadf12;}.c{fill:#fea243;}.d{fill:#fe5294;}.e{fill:#fff;}
    </style>
  </defs>
  <title>
    Artboard 14 copy
  </title>
  <path class="a" d="M59.86 37.23a4.06 4.06 0 0 1-1.18 2.88 1.38 1.38 0 0 1-.21.2 4 4 0 0 1-1.09.7l-.23.1a4.08 4.08 0 0 1-1.4.25h-19a4.54 4.54 0 0 1-.56 0h-.12a4.55 4.55 0 0 1-.56-.13 4.27 4.27 0 0 1-.52-.22h-.08a4.17 4.17 0 0 1-.48-.29l-.1-.07c-.13-.1-.26-.21-.38-.32l-.08-.08a4.37 4.37 0 0 1-.33-.38l-.11-.15a4.64 4.64 0 0 1-.28-.45L33 39a3.86 3.86 0 0 1-.2-.5v-.12a4.13 4.13 0 0 1-.13-1.52v-.4l.06-.23a1.5 1.5 0 0 0 0-.15c0-.09.06-.17.09-.25v-.12l.11-.24.06-.13.12-.2.09-.15.11-.15.14-.19.08-.1.19-.21.06-.06.24-.21.27-.2h.06l.28-.17.11-.05.25-.12.22-.08.15-.06.18-.06a3 3 0 0 1-.41-.57 2.79 2.79 0 0 1-.24-.54 4.13 4.13 0 0 1 2.69-5.17l.61-.2a10.12 10.12 0 0 1 0-1.7v-.48c0-1.15.94-1.75 1.89-2.29a3 3 0 0 1 .56-2.09c.08-.08.35-.45.59-.77a30.53 30.53 0 0 1 2-2.53 2.51 2.51 0 0 1 1.7-.95 1.81 1.81 0 0 1 1.33.73 7.58 7.58 0 0 1 .69.91 7.08 7.08 0 0 0 .88 1.13 11.67 11.67 0 0 0 1.77 1.14c.35.2.67.38.9.53a2.68 2.68 0 0 1 1.05 1.58v.05a6.31 6.31 0 0 1 .19.82 4.12 4.12 0 0 1 1.33.43 4.08 4.08 0 0 1 2 2.41 2.8 2.8 0 0 1-.2 2.37 4.1 4.1 0 0 1 .45.2 4 4 0 0 1 1.58 1.45l.1.17a3.6 3.6 0 0 1 .33.75 4.12 4.12 0 0 1-.16 2.9 4.12 4.12 0 0 1 2.69 3.62z"/>
  <path class="b" d="M51.8 22L35.3 32.7a2.79 2.79 0 0 1-.24-.54 4.13 4.13 0 0 1 2.69-5.17l.61-.2a10.12 10.12 0 0 1 0-1.7v-.48c0-1.15.94-1.75 1.89-2.29a3 3 0 0 1 .56-2.09c.08-.08.35-.45.59-.77a30.53 30.53 0 0 1 2-2.53 2.51 2.51 0 0 1 1.7-.95 1.81 1.81 0 0 1 1.33.73 7.58 7.58 0 0 1 .69.91 7.08 7.08 0 0 0 .88 1.13 11.67 11.67 0 0 0 1.77 1.14c.35.2.67.38.9.53A2.68 2.68 0 0 1 51.72 22z"/>
  <path class="c" d="M57.31 29.85L39.55 41.36h-2.82a4.54 4.54 0 0 1-.56 0h-.12a4.55 4.55 0 0 1-.56-.13 4.27 4.27 0 0 1-.52-.22h-.08a4.17 4.17 0 0 1-.48-.29l-.1-.07c-.13-.1-.26-.21-.38-.32l-.08-.08a4.37 4.37 0 0 1-.33-.38l-.11-.15a4.64 4.64 0 0 1-.28-.45L33 39a3.86 3.86 0 0 1-.2-.5v-.12a4.13 4.13 0 0 1-.13-1.52v-.4l.06-.23a1.5 1.5 0 0 0 0-.15c0-.09.06-.17.09-.25v-.12l.11-.24.06-.13.12-.2.09-.15.11-.15.14-.19.08-.1.19-.21.06-.06.24-.21.27-.2h.06l.28-.17.11-.05.25-.12.22-.08.15-.06.18-.06a3 3 0 0 1-.41-.57l16.51-10.7v.05a6.31 6.31 0 0 1 .19.82 4.12 4.12 0 0 1 1.33.43 4.08 4.08 0 0 1 2 2.41 2.8 2.8 0 0 1-.2 2.37 4.1 4.1 0 0 1 .45.2 4 4 0 0 1 1.58 1.45l.1.17z"/>
  <path class="d" d="M59.86 37.23a4.06 4.06 0 0 1-1.18 2.88 1.38 1.38 0 0 1-.21.2 4 4 0 0 1-1.09.7l-.23.1a4.08 4.08 0 0 1-1.4.25H39.47L57.28 29.8a3.6 3.6 0 0 1 .33.75 4.12 4.12 0 0 1-.16 2.9 4.12 4.12 0 0 1 2.41 3.78z"/>
  <path class="a" d="M56.66 42.28h-.05a5 5 0 0 1-1.69.31l-18.52.06h-.66a5.21 5.21 0 0 1-.71-.17h-.12a5.13 5.13 0 0 1-.54-.24l-.13-.06a5 5 0 0 1-.58-.37l-.14-.11c-.14-.12-.28-.24-.42-.37l-.1-.2a5.48 5.48 0 0 1-.4-.47v-.07l-.11-.16a5.5 5.5 0 0 1-.31-.53v-.13c-.07-.15-.13-.29-.19-.43l-.17-.16v-.34a5.29 5.29 0 0 1-.26-1.84l.19-1 .07-.21v-.07l.07-.19.34-.68.13-.22.14-.2.13-.18.09-.12.09-.1.17-.19.08-.09.16-.15.15-.11.32-.25.1-.07.2-.13c0-.12-.09-.24-.13-.37a5.3 5.3 0 0 1 .35-3.93 5.1 5.1 0 0 1 2.78-2.53V25.2v-.46a3.56 3.56 0 0 1 2.01-2.9 3.67 3.67 0 0 1 .85-2.23l.45-.63.07-.1a30.78 30.78 0 0 1 2-2.57A3.46 3.46 0 0 1 44.72 15h.13a2.74 2.74 0 0 1 2.05 1.1 7.87 7.87 0 0 1 .7 1v.06a6.58 6.58 0 0 0 .7 1 11.52 11.52 0 0 0 1.5 1c.36.21.69.41.93.57a3.64 3.64 0 0 1 1.44 2.16l.08.28a4.83 4.83 0 0 1 .89.37 5 5 0 0 1 2.47 3 4.22 4.22 0 0 1 .11 2.17 5 5 0 0 1 1.54 1.6l.11.18.06.1a4.74 4.74 0 0 1 .38.92 5.35 5.35 0 0 1 .08 2.75A5.22 5.22 0 0 1 60 37.38 5.25 5.25 0 0 1 58.57 41a2.44 2.44 0 0 1-.29.29 4.91 4.91 0 0 1-1.29.87l-.3.13zm-19.91-1.75l18.18-.07a2.69 2.69 0 0 0 1-.18l.17-.07a2.76 2.76 0 0 0 .75-.5l.16-.15a3.11 3.11 0 0 0 .86-2.16 3 3 0 0 0-1.68-2.76l-.92-.44.4-.94a3.22 3.22 0 0 0 .13-2.19 2.53 2.53 0 0 0-.22-.53l-.12-.2a2.83 2.83 0 0 0-1.1-1l-.3-.13-1.2-.44.65-1.1a1.82 1.82 0 0 0 .1-1.52 2.94 2.94 0 0 0-1.44-1.77 2.76 2.76 0 0 0-.94-.31l-.79-.12-.12-.78a5.34 5.34 0 0 0-.15-.69 1.73 1.73 0 0 0-.6-1c-.21-.15-.5-.32-.81-.5a11 11 0 0 1-1.91-1.3 7.7 7.7 0 0 1-1-1.31v-.06a6.18 6.18 0 0 0-.52-.72c-.18-.21-.33-.37-.48-.38-.14 0-.39.1-.84.6a29.2 29.2 0 0 0-1.84 2.37l-.05.07c-.38.53-.54.75-.65.87a2.24 2.24 0 0 0-.27 1.3v.66l-.58.34c-1 .56-1.27.9-1.3 1.41V25.42a9.27 9.27 0 0 0 0 1.45l.09.85-1.41.48a2.93 2.93 0 0 0-1.71 1.5A3.17 3.17 0 0 0 36 32a1.8 1.8 0 0 0 .14.34l.06.11a2.13 2.13 0 0 0 .23.32L37.48 34l-1.66.54h-.05l-.16.06h-.09l-.18.09-.12.06-.17.11L35 35l-.08.06-.13.11-.17.15-.13.14-.06.07-.14.19-.08.11-.37.8v.15l-.05.28v.17a3.18 3.18 0 0 0 .1 1.14v.12a3 3 0 0 0 .15.38l.06.13c.06.11.12.21.19.31l.08.11a3 3 0 0 0 .22.26l.06.06.26.23h.05a3 3 0 0 0 .32.21h.09a2.85 2.85 0 0 0 .37.16l.35.08h.46zm-1 2.07z"/>
  <ellipse class="e" cx="49.4" cy="28.99" rx="2.25" ry="3.45"/>
  <path class="a" d="M49.4 33.33c-1.77 0-3.15-1.91-3.15-4.35s1.38-4.35 3.15-4.35 3.15 1.91 3.15 4.35-1.39 4.35-3.15 4.35zm0-6.89c-.64 0-1.4 1.09-1.4 2.56s.71 2.55 1.35 2.55S50.7 30.46 50.7 29s-.7-2.56-1.3-2.56z"/>
  <ellipse class="a" cx="49.38" cy="29.17" rx="1.15" ry="1.58"/>
  <ellipse class="e" cx="42.62" cy="28.88" rx="2.25" ry="3.45"/>
  <path class="a" d="M42.62 33.23c-1.77 0-3.15-1.91-3.15-4.35s1.38-4.35 3.15-4.35 3.15 1.91 3.15 4.35-1.39 4.35-3.15 4.35zm0-6.89c-.64 0-1.35 1.09-1.35 2.55s.71 2.55 1.35 2.55S44 30.34 44 28.88s-.74-2.54-1.38-2.54z"/>
  <ellipse class="a" cx="42.61" cy="29.07" rx="1.15" ry="1.58"/>
  <path class="e" d="M51.08 35.78h-9.27c-.46.29-.73.62-.73 1 0 1.07 2.4 1.94 5.37 1.94s5.37-.87 5.37-1.94c-.01-.38-.27-.72-.74-1z"/>
  <path class="a" d="M46.45 39.59c-3 0-6.27-.89-6.27-2.84A2.05 2.05 0 0 1 41.33 35l.22-.14h9.79l.22.14a2.05 2.05 0 0 1 1.16 1.74c-.01 1.97-3.26 2.85-6.27 2.85zM42 36.76c.29.34 1.81 1 4.44 1s4.15-.69 4.44-1l-.09-.08h-8.7zM90.86 37.23a4.06 4.06 0 0 1-1.18 2.88 1.38 1.38 0 0 1-.21.2 4 4 0 0 1-1.09.7l-.23.1a4.08 4.08 0 0 1-1.4.25h-19a4.54 4.54 0 0 1-.56 0h-.12a4.55 4.55 0 0 1-.56-.13 4.27 4.27 0 0 1-.52-.22h-.08a4.17 4.17 0 0 1-.48-.29l-.1-.07c-.13-.1-.26-.21-.38-.32l-.08-.08a4.37 4.37 0 0 1-.33-.38l-.11-.15a4.64 4.64 0 0 1-.28-.45L64 39a3.86 3.86 0 0 1-.2-.5v-.12a4.13 4.13 0 0 1-.13-1.52v-.4l.06-.23a1.5 1.5 0 0 0 0-.15c0-.09.06-.17.09-.25v-.12l.11-.24.06-.13.12-.2.09-.15.11-.15.14-.19.08-.1.19-.21.06-.06.24-.21.27-.2h.06l.28-.17.11-.05.25-.12.22-.08.15-.06.18-.06a3 3 0 0 1-.41-.57 2.79 2.79 0 0 1-.24-.54 4.13 4.13 0 0 1 2.69-5.17l.61-.2a10.12 10.12 0 0 1 0-1.7v-.48c0-1.15.94-1.75 1.89-2.29a3 3 0 0 1 .56-2.09c.08-.08.35-.45.59-.77a30.53 30.53 0 0 1 2-2.53 2.51 2.51 0 0 1 1.7-.95 1.81 1.81 0 0 1 1.33.73 7.58 7.58 0 0 1 .69.91 7.08 7.08 0 0 0 .88 1.13 11.67 11.67 0 0 0 1.77 1.14c.35.2.67.38.9.53a2.68 2.68 0 0 1 1.05 1.58v.05a6.31 6.31 0 0 1 .19.82 4.12 4.12 0 0 1 1.33.43 4.08 4.08 0 0 1 2 2.41 2.8 2.8 0 0 1-.2 2.37 4.1 4.1 0 0 1 .45.2 4 4 0 0 1 1.58 1.45l.1.17a3.6 3.6 0 0 1 .33.75 4.12 4.12 0 0 1-.16 2.9 4.12 4.12 0 0 1 2.69 3.62z"/>
  <path class="b" d="M82.8 22L66.3 32.7a2.79 2.79 0 0 1-.24-.54 4.13 4.13 0 0 1 2.69-5.17l.61-.2a10.12 10.12 0 0 1 0-1.7v-.48c0-1.15.94-1.75 1.89-2.29a3 3 0 0 1 .56-2.09c.08-.08.35-.45.59-.77a30.53 30.53 0 0 1 2-2.53 2.51 2.51 0 0 1 1.7-.95 1.81 1.81 0 0 1 1.33.73 7.58 7.58 0 0 1 .69.91 7.08 7.08 0 0 0 .88 1.13 11.67 11.67 0 0 0 1.77 1.14c.35.2.67.38.9.53A2.68 2.68 0 0 1 82.72 22z"/>
  <path class="c" d="M88.31 29.85L70.55 41.36h-2.82a4.54 4.54 0 0 1-.56 0h-.12a4.55 4.55 0 0 1-.56-.13 4.27 4.27 0 0 1-.52-.22h-.08a4.17 4.17 0 0 1-.48-.29l-.1-.07c-.13-.1-.26-.21-.38-.32l-.08-.08a4.37 4.37 0 0 1-.33-.38l-.11-.15a4.64 4.64 0 0 1-.28-.45L64 39a3.86 3.86 0 0 1-.2-.5v-.12a4.13 4.13 0 0 1-.13-1.52v-.4l.06-.23a1.5 1.5 0 0 0 0-.15c0-.09.06-.17.09-.25v-.12l.11-.24.06-.13.12-.2.09-.15.11-.15.14-.19.08-.1.19-.21.06-.06.24-.21.27-.2h.06l.28-.17.11-.05.25-.12.22-.08.15-.06.18-.06a3 3 0 0 1-.41-.57l16.51-10.7v.05a6.31 6.31 0 0 1 .19.82 4.12 4.12 0 0 1 1.33.43 4.08 4.08 0 0 1 2 2.41 2.8 2.8 0 0 1-.2 2.37 4.1 4.1 0 0 1 .45.2 4 4 0 0 1 1.58 1.45l.1.17z"/>
  <path class="d" d="M90.86 37.23a4.06 4.06 0 0 1-1.18 2.88 1.38 1.38 0 0 1-.21.2 4 4 0 0 1-1.09.7l-.23.1a4.08 4.08 0 0 1-1.4.25H70.47L88.28 29.8a3.6 3.6 0 0 1 .33.75 4.12 4.12 0 0 1-.16 2.9 4.12 4.12 0 0 1 2.41 3.78z"/>
  <path class="a" d="M87.66 42.28h-.05a5 5 0 0 1-1.69.31l-18.52.06h-.66a5.21 5.21 0 0 1-.71-.17h-.12a5.13 5.13 0 0 1-.54-.24l-.13-.06a5 5 0 0 1-.58-.37l-.14-.11c-.14-.12-.28-.24-.42-.37l-.1-.2a5.48 5.48 0 0 1-.4-.47v-.07l-.11-.16a5.5 5.5 0 0 1-.31-.53v-.13c-.07-.15-.13-.29-.19-.43l-.17-.16v-.34a5.29 5.29 0 0 1-.26-1.84l.19-1 .07-.21v-.07l.07-.19.34-.68.13-.22.14-.2.13-.18.09-.12.09-.1.17-.19.08-.09.16-.15.15-.11.32-.25.1-.07.2-.13c0-.12-.09-.24-.13-.37a5.3 5.3 0 0 1 .35-3.93 5.1 5.1 0 0 1 2.78-2.53V25.2v-.46a3.56 3.56 0 0 1 2.01-2.9 3.67 3.67 0 0 1 .85-2.23l.45-.63.07-.1a30.78 30.78 0 0 1 2-2.57A3.46 3.46 0 0 1 75.72 15h.13a2.74 2.74 0 0 1 2.05 1.1 7.87 7.87 0 0 1 .7 1v.06a6.58 6.58 0 0 0 .7 1 11.52 11.52 0 0 0 1.5 1c.36.21.69.41.93.57a3.64 3.64 0 0 1 1.44 2.16l.08.28a4.83 4.83 0 0 1 .89.37 5 5 0 0 1 2.47 3 4.22 4.22 0 0 1 .11 2.17 5 5 0 0 1 1.54 1.6l.11.18.06.1a4.74 4.74 0 0 1 .38.92 5.35 5.35 0 0 1 .08 2.75A5.22 5.22 0 0 1 91 37.38 5.25 5.25 0 0 1 89.57 41a2.44 2.44 0 0 1-.29.29 4.91 4.91 0 0 1-1.29.87l-.3.13zm-19.91-1.75l18.18-.07a2.69 2.69 0 0 0 1-.18l.17-.07a2.76 2.76 0 0 0 .75-.5l.16-.15a3.11 3.11 0 0 0 .86-2.16 3 3 0 0 0-1.68-2.76l-.92-.44.4-.94a3.22 3.22 0 0 0 .13-2.19 2.53 2.53 0 0 0-.22-.53l-.12-.2a2.83 2.83 0 0 0-1.1-1l-.3-.13-1.2-.44.65-1.1a1.82 1.82 0 0 0 .1-1.52 2.94 2.94 0 0 0-1.44-1.77 2.76 2.76 0 0 0-.94-.31l-.79-.12-.12-.78a5.34 5.34 0 0 0-.15-.69 1.73 1.73 0 0 0-.6-1c-.21-.15-.5-.32-.81-.5a11 11 0 0 1-1.91-1.3 7.7 7.7 0 0 1-1-1.31v-.06a6.18 6.18 0 0 0-.52-.72c-.18-.21-.33-.37-.48-.38-.14 0-.39.1-.84.6a29.2 29.2 0 0 0-1.84 2.37l-.05.07c-.38.53-.54.75-.65.87a2.24 2.24 0 0 0-.27 1.3v.66l-.58.34c-1 .56-1.27.9-1.3 1.41V25.42a9.27 9.27 0 0 0 0 1.45l.09.85-1.41.48a2.93 2.93 0 0 0-1.71 1.5A3.17 3.17 0 0 0 67 32a1.8 1.8 0 0 0 .14.34l.06.11a2.13 2.13 0 0 0 .23.32L68.48 34l-1.66.54h-.05l-.16.06h-.09l-.18.09-.12.06-.17.11L66 35l-.08.06-.13.11-.17.15-.13.14-.06.07-.14.19-.08.11-.37.8v.15l-.05.28v.17a3.18 3.18 0 0 0 .1 1.14v.12a3 3 0 0 0 .15.38l.06.13c.06.11.12.21.19.31l.08.11a3 3 0 0 0 .22.26l.06.06.26.23h.05a3 3 0 0 0 .32.21h.09a2.85 2.85 0 0 0 .37.16l.35.08h.46zm-1 2.07z"/>
  <ellipse class="e" cx="80.4" cy="28.99" rx="2.25" ry="3.45"/>
  <path class="a" d="M80.4 33.33c-1.77 0-3.15-1.91-3.15-4.35s1.38-4.35 3.15-4.35 3.15 1.91 3.15 4.35-1.39 4.35-3.15 4.35zm0-6.89c-.64 0-1.4 1.09-1.4 2.56s.71 2.55 1.35 2.55S81.7 30.46 81.7 29s-.7-2.56-1.3-2.56z"/>
  <ellipse class="a" cx="80.38" cy="29.17" rx="1.15" ry="1.58"/>
  <ellipse class="e" cx="73.62" cy="28.88" rx="2.25" ry="3.45"/>
  <path class="a" d="M73.62 33.23c-1.77 0-3.15-1.91-3.15-4.35s1.38-4.35 3.15-4.35 3.15 1.91 3.15 4.35-1.39 4.35-3.15 4.35zm0-6.89c-.64 0-1.35 1.09-1.35 2.55s.71 2.55 1.35 2.55S75 30.34 75 28.88s-.74-2.54-1.38-2.54z"/>
  <ellipse class="a" cx="73.61" cy="29.07" rx="1.15" ry="1.58"/>
  <path class="e" d="M82.08 35.78h-9.27c-.46.29-.73.62-.73 1 0 1.07 2.4 1.94 5.37 1.94s5.37-.87 5.37-1.94c-.01-.38-.27-.72-.74-1z"/>
  <path class="a" d="M77.45 39.59c-3 0-6.27-.89-6.27-2.84A2.05 2.05 0 0 1 72.33 35l.22-.14h9.79l.22.14a2.05 2.05 0 0 1 1.16 1.74c-.01 1.97-3.26 2.85-6.27 2.85zM73 36.76c.29.34 1.81 1 4.44 1s4.15-.69 4.44-1l-.09-.08h-8.7zM4.45 49.28V20a13.88 13.88 0 0 1 .08-1.71A4.14 4.14 0 0 1 4.95 17q.7-1.35 3.36-1.36a6.58 6.58 0 0 1 3.59.68 2.71 2.71 0 0 1 1.08 2q1.91-2.61 6-2.61t7.75 3.86a12.88 12.88 0 0 1 0 18q-3.62 3.84-7.73 3.84t-6-2.31v10.13a13.88 13.88 0 0 1 0 1.71 4.07 4.07 0 0 1-.45 1.28 2.11 2.11 0 0 1-1.28 1 8 8 0 0 1-2.46.3 8.29 8.29 0 0 1-2.48-.3 2.15 2.15 0 0 1-1.3-1A3.85 3.85 0 0 1 4.52 51a13.88 13.88 0 0 1-.07-1.72zm9.94-23.64a4.47 4.47 0 0 0-1.15 3 4.32 4.32 0 0 0 1.18 2.94 3.84 3.84 0 0 0 3 1.33 4.19 4.19 0 0 0 3.11-1.3 4.12 4.12 0 0 0 1.28-3 4.34 4.34 0 0 0-1.2-3 4 4 0 0 0-3.14-1.33 3.85 3.85 0 0 0-3.09 1.37zM93.7 49.28V20a13.88 13.88 0 0 1 .08-1.71 4.14 4.14 0 0 1 .43-1.29q.7-1.35 3.36-1.36a6.58 6.58 0 0 1 3.59.68 2.71 2.71 0 0 1 1.08 2q1.91-2.61 6-2.61t7.76 3.86a12.88 12.88 0 0 1 0 18q-3.64 3.86-7.75 3.86t-6-2.31v10.11a13.88 13.88 0 0 1-.08 1.71 4.07 4.07 0 0 1-.45 1.28 2.11 2.11 0 0 1-1.28 1 8 8 0 0 1-2.46.3 8.29 8.29 0 0 1-2.48-.3 2.15 2.15 0 0 1-1.3-1 3.85 3.85 0 0 1-.42-1.22 13.88 13.88 0 0 1-.08-1.72zm9.94-23.64a4.47 4.47 0 0 0-1.15 3 4.32 4.32 0 0 0 1.18 2.94 3.84 3.84 0 0 0 3 1.33 4.19 4.19 0 0 0 3.11-1.3 4.12 4.12 0 0 0 1.28-3 4.34 4.34 0 0 0-1.2-3 4 4 0 0 0-3.14-1.33 3.85 3.85 0 0 0-3.08 1.36zM130.61 10.76a2.12 2.12 0 0 1-1.33 1 10.81 10.81 0 0 1-5.07 0 2.11 2.11 0 0 1-1.33-1.05 4.33 4.33 0 0 1-.45-1.33 14.54 14.54 0 0 1-.08-1.73 14.56 14.56 0 0 1 .08-1.73 4.12 4.12 0 0 1 .43-1.28q.7-1.35 3.91-1.36t3.81 1.36a4 4 0 0 1 .48 1.36 14.62 14.62 0 0 1 .07 1.73 14.6 14.6 0 0 1-.07 1.73 4 4 0 0 1-.45 1.3zm-8.26 9.31a14.57 14.57 0 0 1 .08-1.73 4.67 4.67 0 0 1 .43-1.33q.7-1.3 3.91-1.3a5.31 5.31 0 0 1 3.41.85 2.77 2.77 0 0 1 .9 2.16q0 .5.05 1.45v17.56a14.6 14.6 0 0 1-.07 1.73 4 4 0 0 1-.48 1.33q-.65 1.3-3.86 1.3t-3.86-1.36a4.69 4.69 0 0 1-.43-1.3 14.43 14.43 0 0 1-.08-1.76zM144.14 28.88a4.08 4.08 0 0 0 1.41 3.31 4.57 4.57 0 0 0 3 1.18 5.2 5.2 0 0 0 3-.93 4.42 4.42 0 0 1 2.23-.93q1.51 0 3.66 2.66a4.41 4.41 0 0 1 1.15 2.61q0 1.91-2.76 3.56a11.92 11.92 0 0 1-7 2 14.44 14.44 0 0 1-9-3.36 11.93 11.93 0 0 1-3.36-4.29 13.36 13.36 0 0 1-1.3-5.92 13 13 0 0 1 1.3-5.87 12 12 0 0 1 3.36-4.24 14 14 0 0 1 8.88-3.31 13.22 13.22 0 0 1 3.71.53 12.46 12.46 0 0 1 2.66 1l.8.5 1.41 1a2.87 2.87 0 0 1 1.3 2.28 5.42 5.42 0 0 1-1.05 2.89q-1.81 2.76-3.46 2.76a5.82 5.82 0 0 1-2.71-1.11 3.62 3.62 0 0 0-2.58-.85 4.83 4.83 0 0 0-3.14 1.2 4.09 4.09 0 0 0-1.51 3.33zM166 19a13.79 13.79 0 0 1 19.22 0 13 13 0 0 1 4.17 9.91 13 13 0 0 1-2.16 7.4 13.53 13.53 0 0 1-5.28 4.69 14.21 14.21 0 0 1-6.4 1.53 13.67 13.67 0 0 1-6.42-1.63 14.22 14.22 0 0 1-5.24-4.82 12.64 12.64 0 0 1-2.13-7.2A13 13 0 0 1 166 19zm6.27 13.52a5.32 5.32 0 0 0 3.26 1.23 5.47 5.47 0 0 0 3.31-1.25 4.37 4.37 0 0 0 1.66-3.71 4.34 4.34 0 0 0-1.56-3.66 5.38 5.38 0 0 0-3.36-1.2 5.25 5.25 0 0 0-3.36 1.25 4.45 4.45 0 0 0-1.56 3.69 4.32 4.32 0 0 0 1.58 3.62zM211.28 16a3.39 3.39 0 0 1 1.58 1 3.54 3.54 0 0 1 .63 2.33 8 8 0 0 1-1 3.51 3 3 0 0 1-2.76 1.91 3.92 3.92 0 0 1-1.73-.4 5 5 0 0 0-2.18-.4 4 4 0 0 0-2.53 1 2.88 2.88 0 0 0-1.18 2.31v10.47a14.6 14.6 0 0 1-.07 1.73 4 4 0 0 1-.48 1.33q-.75 1.3-3.91 1.3a5.53 5.53 0 0 1-3.46-.85 3 3 0 0 1-.9-2.16V20a14.57 14.57 0 0 1 .08-1.73 4.12 4.12 0 0 1 .43-1.28q.7-1.35 3.91-1.36 3 0 3.76 1.15a2.89 2.89 0 0 1 .55 1.66 8.53 8.53 0 0 1 .73-.85 9.33 9.33 0 0 1 2-1.36 5.87 5.87 0 0 1 2.74-.85 13.17 13.17 0 0 1 2 .13 12 12 0 0 1 1.79.49zM231.66 15.65a10.62 10.62 0 0 1 8.34 3.84 13.77 13.77 0 0 1 3.34 9.36v8.83a14.59 14.59 0 0 1-.07 1.73 4.13 4.13 0 0 1-.43 1.28q-.7 1.35-3.91 1.36-3.56 0-4.12-1.86a8.17 8.17 0 0 1-.3-2.56V28.8a4 4 0 0 0-4.34-4.37 4.39 4.39 0 0 0-3.21 1.2 4.22 4.22 0 0 0-1.23 3.16v8.88a14.59 14.59 0 0 1-.07 1.73 3.57 3.57 0 0 1-.48 1.28q-.65 1.35-3.86 1.36t-3.86-1.36a4.65 4.65 0 0 1-.43-1.33 14.53 14.53 0 0 1-.08-1.73V19.87a14 14 0 0 1 .08-1.68 3.56 3.56 0 0 1 .48-1.28q.7-1.25 3.86-1.25t3.76 1.15a4 4 0 0 1 .5 2.06 5.12 5.12 0 0 1 .9-1 8.84 8.84 0 0 1 1.36-1.05 6.57 6.57 0 0 1 3.77-1.17z"/>
</svg>
